<?xml version="1.0" encoding="utf-8"?>
<!-- Generator: Adobe Illustrator 24.0.2, SVG Export Plug-In . SVG Version: 6.00 Build 0)  -->
<svg version="1.1" id="Layer_1" xmlns="http://www.w3.org/2000/svg" xmlns:xlink="http://www.w3.org/1999/xlink" x="0px" y="0px"
	 viewBox="0 0 98 34" style="enable-background:new 0 0 98 34;" xml:space="preserve">
<style type="text/css">
	.st0{fill:#FFFFFF;}
</style>
<g>
	<path class="st0" d="M87.1,19.5c-2.4-2.1-6.1-1.5-8.3,1.2c-2.2,2.7-2.1,6.6,0.3,8.7c0.4,0.4,0.9,0.3,1.4-0.4c0.5-0.6,6-7.4,6.3-7.8
		C87.5,20.5,87.5,19.8,87.1,19.5 M61.7,19.5c-0.4,0.4-0.3,1,0.2,1.6c0.3,0.4,5.8,7.1,6.3,7.8c0.5,0.6,1,0.7,1.4,0.4
		c2.4-2.1,2.6-5.9,0.3-8.7C67.7,17.9,64,17.4,61.7,19.5 M81.3,11.6c0-3.9-3.1-7.2-7-7.2c-3.8,0-7,3.2-7,7.2c0,3,1.8,5.7,4.3,6.7
		c0.9,0.4,1.3,0.1,1.3-0.6c0-1-1.2-1.5-1.2-3.1c0-1.4,1.1-2.6,2.6-2.6c1.4,0,2.6,1.1,2.6,2.6c0,1.2-1.2,2.2-1.2,3.1
		c0,0.8,0.4,1,1.3,0.6h0.1C79.6,17.2,81.3,14.6,81.3,11.6"/>
	<path class="st0" d="M10.8,27.4c-0.4,0.7,0.1,1.3,0.5,1.3h4.3c0.4,0,0.9-0.5,1.3-1.1c0.4-0.6,2.2-3.7,4-6.8h-6.1L10.8,27.4z
		 M28.5,28l-1.3-7.3h-5.6c0.6,4,0.9,6.3,1,6.8c0.1,0.7,0.9,1.1,1.2,1.1h3.9C28.2,28.7,28.5,28.5,28.5,28 M25.6,12.4
		c-0.1-0.4-0.6-0.7-1.1-0.7H23c-0.4,0-2.8,0-4.2,2.5c-0.7,1.1-3.4,5.6-3.4,5.6h11.5C26.9,19.8,25.7,13,25.6,12.4"/>
	<path class="st0" d="M59,24.1h-5.9l2.5-3.4H49c-0.6,0.8-1.9,2.5-2.3,3.1c-0.5,0.8-0.9,1.3-0.9,2.1V28c0,0.4,0.3,0.7,0.6,0.7H59
		c0.4,0,0.6-0.3,0.6-0.7v-3.2C59.7,24.4,59.4,24.1,59,24.1 M59,11.8H46.4c-0.4,0-0.6,0.3-0.6,0.7V16c0,0.4,0.3,0.7,0.6,0.7H52
		l-2.4,3.2h6.7c0.5-0.7,1.9-2.6,2.4-3.2c0.5-0.8,0.9-1.3,0.9-2.1v-2.1C59.7,12.1,59.4,11.8,59,11.8"/>
	<path class="st0" d="M44.2,19.8v-7.3c0-0.4-0.3-0.7-0.6-0.7h-3.9c-0.4,0-0.6,0.3-0.6,0.7V19l-3.5-6.2c-0.3-0.5-0.9-1.1-1.5-1.1
		h-3.8c-0.4,0-0.6,0.3-0.6,0.7v7.3h4.2l0.5,0.9h-4.7V28c0,0.4,0.3,0.7,0.6,0.7H34c0.4,0,0.6-0.3,0.6-0.7v-6.6l3.5,6.3
		c0.4,0.7,1,0.9,1.5,0.9h3.8c0.4,0,0.6-0.3,0.6-0.7v-7.3h-4.2l-0.5-0.9h4.8V19.8z"/>
</g>
</svg>
