<?xml version="1.0" encoding="utf-8"?>
<!-- Generator: Adobe Illustrator 24.0.2, SVG Export Plug-In . SVG Version: 6.00 Build 0)  -->
<svg version="1.1" id="Layer_1" xmlns="http://www.w3.org/2000/svg" xmlns:xlink="http://www.w3.org/1999/xlink" x="0px" y="0px"
	 viewBox="0 0 238 34" style="enable-background:new 0 0 238 34;" xml:space="preserve">
<style type="text/css">
	.st0{fill:#FFFFFF;}
</style>
<path class="st0" d="M225,25.2h3v-6.6l6.5-9.9h-3.3l-4.7,7.4l-4.6-7.3h-3.4l6.5,9.9L225,25.2L225,25.2z M204.2,25.2h2.9V11.4h5.2
	V8.7h-13.4v2.7h5.2L204.2,25.2L204.2,25.2z M184.7,25.2h11.5v-2.7h-8.7V8.6h-2.9V25.2L184.7,25.2z M174.1,18.7l-2.8-6.6l-2.8,6.6
	H174.1L174.1,18.7z M170,8.6h2.7l7.3,16.7h-3.1l-1.7-4h-7.8l-1.7,4h-3L170,8.6z M146,25.2h12.3v-2.6h-9.4v-4.4h8.2v-2.6h-8.2v-4.3
	h9.3V8.7H146V25.2L146,25.2z M134.3,16.8c2,0,3.4-1.1,3.4-2.8V14c0-1.8-1.3-2.8-3.4-2.8h-4.2v5.6L134.3,16.8L134.3,16.8z M127.1,8.7
	h7.4c1.7-0.1,3.4,0.5,4.8,1.7c0.9,0.9,1.4,2.1,1.4,3.4V14v0.1c0,2.8-1.6,4.4-4,5l4.5,6.2h-3.4l-4.1-5.8h-3.6v5.8h-2.9V8.7H127.1z
	 M100.2,25.2h11.5v-2.7h-8.7V8.6h-2.9L100.2,25.2L100.2,25.2z M89.3,18.7L86.4,12l-2.9,6.6H89.3L89.3,18.7z M85.1,8.6h2.7l7.3,16.7
	H92l-1.6-4.1h-7.8l-1.7,4h-3L85.1,8.6z M68.1,25.2H71V11.4h5.2V8.7H62.9v2.7h5.2V25.2L68.1,25.2z M54.5,25.2h2.9V8.7h-2.9V25.2
	L54.5,25.2z M32.4,17.1c0,4.8,3.4,8.4,8.5,8.4c2.6,0,4.9-1,6.8-2.6V16h-6.9v2.6h4.2v3.1c-1.2,0.9-2.6,1.3-4,1.3H41
	c-3.3,0-5.6-2.5-5.6-5.9V17c0-3.2,2.4-5.8,5.3-5.8H41c1.7,0,3.3,0.6,4.4,1.8l1.8-2.2c-1.7-1.6-4.1-2.4-6.3-2.2h-0.1
	c-4.6,0-8.4,3.7-8.4,8.4C32.4,16.8,32.4,17,32.4,17.1L32.4,17.1L32.4,17.1z M23.8,25.2h2.9V8.7h-2.9L23.8,25.2L23.8,25.2z M9.7,22.5
	c3.4,0,5.7-2.4,5.7-5.6l0,0c0-3.2-2.2-5.6-5.7-5.6H6.5v11.2h3.2V22.5z M3.5,8.7h6.1c5.2,0,8.8,3.5,8.8,8.2l0,0
	c0,4.6-3.6,8.2-8.8,8.2H3.5L3.5,8.7L3.5,8.7z"/>
</svg>
