<?xml version="1.0" encoding="utf-8"?>
<!-- Generator: Adobe Illustrator 24.0.2, SVG Export Plug-In . SVG Version: 6.00 Build 0)  -->
<svg version="1.1" id="Layer_1" xmlns="http://www.w3.org/2000/svg" xmlns:xlink="http://www.w3.org/1999/xlink" x="0px" y="0px"
	 viewBox="0 0 150 34" style="enable-background:new 0 0 150 34;" xml:space="preserve">
<style type="text/css">
	.st0{fill:#FFFFFF;}
</style>
<g>
	<path class="st0" d="M88.5,8.6c-4.8,0-7.5,3.6-7.5,8.5s2.7,8.5,7.5,8.5c4.8,0,7.5-3.6,7.5-8.5C96,12.2,93.2,8.6,88.5,8.6
		 M88.5,22.7c-3,0-4.2-2.8-4.2-5.7s1.2-5.7,4.2-5.7c3,0,4.2,2.8,4.2,5.7C92.7,19.8,91.6,22.7,88.5,22.7"/>
	<polygon class="st0" points="39.8,9.1 39.8,25.1 51.8,25.1 51.8,22.2 43.2,22.2 43.2,18.2 51.2,18.2 51.2,15.5 43.2,15.5 
		43.2,11.9 51.8,11.9 51.8,9.1 	"/>
	<path class="st0" d="M53.2,25.1h3.3v-4.8h3c4.1,0,6.8-2.1,6.8-5.7s-2.6-5.6-6.7-5.6h-6.4V25.1z M59.5,17.4h-3v-5.6l0,0h3
		c2.1,0,3.5,0.9,3.5,2.7S61.6,17.4,59.5,17.4"/>
	<path class="st0" d="M100.7,9.1h-3.4V25h3.3v-6.5c0-1.8-0.1-3.3-0.1-4.8c0.4,0.8,1.6,3.2,2.1,4.1l4.3,7.1h3.4V9.1H107v6.4
		c0,1.8,0.1,3.5,0.1,4.9c-0.4-0.8-1.6-3.2-2.1-4.1L100.7,9.1z"/>
	<path class="st0" d="M66.8,19.7c0,4,3.3,5.8,6.9,5.8c4.4,0,6.7-2.2,6.7-5.2c0-3.7-3.7-4.4-4.9-4.7c-4.1-1.1-4.9-1.3-4.9-2.4
		c0-1.4,1.5-1.9,2.5-1.9c1.7,0,3.2,0.5,3.3,2.4h3.3c0-3.7-3.1-5.3-6.5-5.3c-2.9,0-6.1,1.6-6.1,4.9c0,2.9,2.4,3.9,4.9,4.6
		c2.3,0.7,4.9,1,4.9,2.7c0,1.7-2.1,2.1-3.3,2.1c-2,0-3.7-0.9-3.7-3C70,19.7,66.8,19.7,66.8,19.7z"/>
</g>
</svg>
