<?xml version="1.0" encoding="utf-8"?>
<!-- Generator: Adobe Illustrator 24.0.2, SVG Export Plug-In . SVG Version: 6.00 Build 0)  -->
<svg version="1.1" id="Layer_1" xmlns="http://www.w3.org/2000/svg" xmlns:xlink="http://www.w3.org/1999/xlink" x="0px" y="0px"
	 viewBox="0 0 124 34" style="enable-background:new 0 0 124 34;" xml:space="preserve">
<style type="text/css">
	.st0{fill:#FFFFFF;}
</style>
<g>
	<path class="st0" d="M23.8,12L23.8,12c-1.1,1.7-1.8,3.7-1.8,5.8s0.4,4,1.3,5.5c1.1,1.9,2.7,2.8,4.8,2.8s3.8-0.9,5.3-2.5
		c0.9-1.1,1.5-2.2,1.6-3.4l0,0c0-0.1-0.1-0.1-0.2-0.2h-0.2c-0.7,1.1-1,1.8-1.1,2c-0.8,1-1.9,1.5-3.2,1.5c-1.6,0-2.8-0.7-3.7-2
		c-0.8-1.2-1.1-2.7-1.1-4.6l0.1-1.1h9.8c0.1-1.6-0.3-2.9-1.2-4.2c-1.1-1.7-2.7-2.5-4.8-2.5C26.9,8.9,25.1,10,23.8,12 M25.6,14.4
		c0.1-1.3,0.6-2.3,1.1-3.1s1.3-1.2,2.2-1.2c0.8,0,1.6,0.4,2.1,1.2c0.6,0.9,0.9,1.9,0.9,3.1H25.6z"/>
	<path class="st0" d="M43,9.8L43,9.8c-0.8,0.6-1.5,1.1-1.9,1.9V8.9H41c-1.2,1-2.9,1.8-5,2.3v0.2c1,0,1.6,0.4,1.7,1.3v10.6
		c0,0.8-0.2,1.3-0.7,1.7c-0.1,0.1-0.4,0.3-1,0.4v0.2h6.3v-0.2c-0.8-0.2-1.2-0.9-1.2-2v-8.5c0-1,0.2-1.9,0.7-2.7
		c0.6-1,1.5-1.5,2.6-1.5c1.9,0,2.9,1.1,2.9,3.2v9.4c0,1.1-0.4,1.8-1.2,2v0.2h6.2v-0.2c-0.4-0.1-0.8-0.2-0.9-0.4
		c-0.3-0.3-0.6-0.9-0.6-1.7V12.9c0-0.9-0.4-1.8-1.2-2.6c-0.9-0.9-2.1-1.5-3.5-1.5C45,8.9,44,9.2,43,9.8"/>
	<path class="st0" d="M60.2,9.8L60.2,9.8c-0.8,0.6-1.5,1.1-1.9,1.9V8.9h-0.1c-1.2,1-2.9,1.8-5,2.3v0.2c1,0,1.6,0.4,1.7,1.3v10.6
		c0,0.8-0.2,1.3-0.7,1.7c-0.1,0.1-0.4,0.3-1,0.4v0.2h6.3v-0.2c-0.8-0.2-1.2-0.9-1.2-2v-8.5c0-1,0.2-1.9,0.7-2.7
		c0.6-1,1.5-1.5,2.6-1.5c1.9,0,2.9,1.1,2.9,3.2v9.4c0,1.1-0.4,1.8-1.2,2v0.2h6.2v-0.2c-0.4-0.1-0.7-0.2-0.9-0.4
		c-0.3-0.3-0.6-0.9-0.6-1.7V12.9c0-0.9-0.4-1.8-1.2-2.6c-0.9-0.9-2.1-1.5-3.5-1.5C62.2,8.9,61.2,9.2,60.2,9.8"/>
	<path class="st0" d="M72,12L72,12c-1.1,1.7-1.8,3.7-1.8,5.8s0.4,4,1.3,5.5c1.1,1.9,2.7,2.8,4.8,2.8s3.8-0.9,5.3-2.5
		c0.9-1.1,1.5-2.2,1.6-3.4l0,0c0-0.1-0.1-0.1-0.2-0.2h-0.2c-0.7,1.1-1,1.8-1.1,2c-0.8,1-1.9,1.5-3.2,1.5c-1.6,0-2.8-0.7-3.7-2
		c-0.8-1.2-1.1-2.7-1.1-4.6l0.1-1.1h9.7c0.1-1.6-0.3-2.9-1.2-4.2c-1.1-1.7-2.7-2.5-4.8-2.5C75.2,8.9,73.4,10,72,12 M73.8,14.4
		c0.1-1.3,0.6-2.3,1.1-3.1s1.3-1.2,2.2-1.2c0.8,0,1.6,0.4,2.1,1.2c0.6,0.8,0.9,1.9,0.9,3.1H73.8z"/>
	<path class="st0" d="M94.4,9.1L94.4,9.1L94.4,9.1C94.3,9.6,94,10,93.7,10c-0.2,0-0.8-0.1-1.5-0.3c-0.8-0.2-1.5-0.3-2-0.3
		c-1.2,0-2.3,0.3-3.4,1.1c-1.1,0.9-1.7,2-1.7,3.5c0,1.3,0.4,2.5,1.5,3.2c0.2,0.2,1.1,0.8,2.7,1.7c1.5,0.9,2.2,1.3,2.5,1.6
		c0.8,0.7,1.1,1.5,1.2,2.2c0,0.8-0.3,1.5-1,1.9c-0.6,0.3-1.1,0.6-1.7,0.6c-1.9-0.1-3.4-1.6-4.4-4.2h-0.4l0.2,5.4h0.2
		c0.3-0.6,0.8-0.8,1.2-0.8c0.2,0,0.6,0.1,1.2,0.3c0.7,0.2,1.5,0.4,2.3,0.4c1.2,0,2.5-0.3,3.5-1.1c1.3-0.9,2-2.2,2-4
		c0-1.1-0.6-2.1-1.6-3c-0.7-0.6-1.7-1.3-3.1-2.1c-1.5-0.9-2.2-1.3-2.5-1.6c-0.6-0.4-0.9-1.1-0.9-1.9c0-0.7,0.1-1.1,0.6-1.6
		c0.3-0.4,0.9-0.7,1.6-0.6c0.7,0,1.3,0.2,2.1,0.8c0.9,0.7,1.7,1.6,2.3,2.7h0.3l-0.2-4.7C94.8,8.9,94.4,9.1,94.4,9.1"/>
	<path class="st0" d="M106.6,9.1L106.6,9.1L106.6,9.1c-0.1,0.6-0.4,0.9-0.8,0.9c-0.2,0-0.8-0.1-1.5-0.3c-0.8-0.2-1.5-0.3-2-0.3
		c-1.2,0-2.3,0.3-3.4,1.1c-1.1,0.9-1.7,2-1.7,3.5c0,1.3,0.4,2.5,1.5,3.2c0.3,0.2,1.2,0.9,2.7,1.7c1.5,0.9,2.2,1.3,2.5,1.6
		c0.8,0.7,1.1,1.5,1.2,2.2c0,0.8-0.3,1.5-1,1.9c-0.6,0.3-1.1,0.6-1.7,0.6c-1.9-0.1-3.4-1.6-4.4-4.2h-0.4l0.2,5.4h0.2
		c0.3-0.6,0.8-0.8,1.2-0.8c0.2,0,0.6,0.1,1.2,0.3c0.7,0.2,1.5,0.4,2.3,0.4c1.2,0,2.5-0.3,3.5-1.1c1.3-0.9,2-2.2,2-4
		c0-1.1-0.6-2.1-1.6-3c-0.7-0.6-1.7-1.3-3.1-2.1c-1.5-0.9-2.2-1.3-2.5-1.6c-0.6-0.4-0.9-1.1-0.9-1.9c0-0.7,0.1-1.1,0.6-1.6
		c0.3-0.4,0.9-0.7,1.6-0.6c0.7,0,1.3,0.2,2.1,0.8c0.9,0.7,1.7,1.6,2.3,2.7h0.3l-0.2-4.7C107,8.9,106.6,9.1,106.6,9.1"/>
	<path class="st0" d="M119.2,9.4v0.2c0.7,0.1,1,0.6,1,1.3c0,0.3,0,0.7-0.1,0.9c-0.8,2.2-1.9,5.5-3.4,9.5l-3.4-10.1
		c-0.1-0.2-0.1-0.4-0.1-0.7c0-0.7,0.4-1,1.1-1V9.4h-6.7v0.3c0.8-0.1,1.3,0.4,1.8,1.6c2.1,5.6,4,10.5,5.5,14.7
		c-0.2,0.7-0.3,1.2-0.6,1.7c-0.6,1.1-1.1,1.7-1.8,1.7c-0.3,0-0.7-0.1-1-0.3c-0.3-0.2-0.8-0.3-1-0.3c-1.1,0-1.7,0.4-1.7,1.2
		c0,0.2,0.1,0.6,0.4,0.9c0.4,0.3,1,0.6,1.8,0.6c0.9,0,1.7-0.3,2.5-0.9c0.8-0.6,1.5-1.3,1.8-2.2l6.2-16.4c0.1-0.4,0.4-0.9,0.9-1.5
		c0.4-0.6,0.9-0.9,1.3-0.8V9.3L119.2,9.4L119.2,9.4z"/>
	<path class="st0" d="M14.1,2.7v0.2c0.4,0,0.7,0.2,1,0.6s0.4,0.8,0.4,1.3v7.9H5.9V4.9c0-0.4,0.1-1,0.3-1.3C6.4,3.2,6.8,3,7.1,3V2.8
		H0.3V3c0.4,0,0.8,0.2,1,0.6C1.5,4,1.7,4.5,1.7,4.9v18.8c0,0.4-0.1,0.9-0.4,1.3c-0.3,0.4-0.7,0.6-1,0.6v0.2h6.9v-0.2
		c-0.8,0-1.1-0.7-1.2-1.9v-9.3h9.7v9.3c0,0.4-0.1,0.9-0.4,1.3c-0.3,0.4-0.7,0.6-1.1,0.6v0.2h6.9v-0.2c-0.4,0-0.7-0.2-1-0.7
		c-0.2-0.4-0.4-0.9-0.4-1.3V4.9c0-0.4,0.1-0.9,0.4-1.3c0.2-0.3,0.6-0.6,1-0.6V2.8L14.1,2.7L14.1,2.7z"/>
</g>
</svg>
