<?xml version="1.0" encoding="utf-8"?>
<!-- Generator: Adobe Illustrator 24.0.2, SVG Export Plug-In . SVG Version: 6.00 Build 0)  -->
<svg version="1.1" id="Layer_1" xmlns="http://www.w3.org/2000/svg" xmlns:xlink="http://www.w3.org/1999/xlink" x="0px" y="0px"
	 viewBox="-1 -6 128.9 34.5" style="enable-background:new 0 0 126.9 22.5;" xml:space="preserve">
<style type="text/css">
	.st0{fill:#FFFFFF;}
</style>
<g>
	<path class="st0" d="M110.2,11c-0.1,0.2-0.1,0.5-0.2,0.7c0,0.1-0.1,0.1-0.1,0.1c-0.3-0.1-0.6-0.3-0.9-0.4c-0.1,0-0.1-0.1,0-0.1
		c0.3-0.2,0.7-0.3,1.1-0.3C110.2,10.9,110.2,11,110.2,11 M108.6,10.4c-0.1,0.2-0.1,0.5-0.2,0.7c0,0.1-0.1,0.1-0.1,0.1
		c-0.3-0.1-0.6-0.3-0.9-0.4c-0.1,0-0.1-0.1,0-0.1c0.3-0.2,0.7-0.3,1.1-0.3C108.5,10.3,108.6,10.4,108.6,10.4 M108.1,12.8
		c0,0.1-0.1,0.1-0.1,0.1c-0.3-0.1-0.6-0.3-0.9-0.4c-0.1,0-0.1-0.1,0-0.1c0.3-0.2,0.7-0.3,1.1-0.3c0.1,0,0.1,0,0.1,0.1
		C108.2,12.3,108.1,12.5,108.1,12.8 M106.8,10.2c-0.1,0.2-0.1,0.5-0.2,0.7c0,0.1-0.1,0.1-0.1,0.1c-0.3-0.1-0.6-0.3-0.9-0.4
		c-0.1,0-0.1-0.1,0-0.1c0.3-0.2,0.7-0.3,1.1-0.3C106.8,10.1,106.9,10.1,106.8,10.2 M106.5,11.7c-0.1,0.2-0.1,0.5-0.2,0.7
		c0,0.1-0.1,0.1-0.1,0.1c-0.3-0.1-0.6-0.3-0.9-0.4c-0.1,0-0.1-0.1,0-0.1c0.3-0.2,0.7-0.3,1.1-0.3C106.5,11.6,106.5,11.6,106.5,11.7
		 M106.1,13.2c-0.1,0.2-0.1,0.5-0.2,0.7c0,0.1-0.1,0.1-0.1,0.1c-0.3-0.1-0.6-0.3-0.9-0.4c-0.1,0-0.1-0.1,0-0.1
		c0.3-0.2,0.7-0.3,1.1-0.3C106.1,13.1,106.2,13.2,106.1,13.2 M104.9,10.9c0,0.1-0.1,0.1-0.1,0.1c-0.3-0.1-0.6-0.3-0.9-0.4
		c-0.1,0-0.1-0.1,0-0.1c0.3-0.2,0.7-0.3,1.1-0.3c0.1,0,0.1,0,0.1,0.1C105,10.4,104.9,10.6,104.9,10.9 M104.7,11.6
		c-0.1,0.2-0.1,0.5-0.2,0.7c0,0.1-0.1,0.1-0.1,0.1c-0.3-0.1-0.6-0.3-0.9-0.4c-0.1,0-0.1-0.1,0-0.1c0.3-0.2,0.7-0.3,1.1-0.3
		C104.7,11.5,104.7,11.6,104.7,11.6 M104.4,13.2c-0.1,0.2-0.1,0.5-0.2,0.7c0,0.1-0.1,0.1-0.1,0.1c-0.3-0.1-0.6-0.3-0.9-0.4
		c-0.1,0-0.1-0.1,0-0.1c0.3-0.2,0.7-0.3,1.1-0.4C104.3,13.1,104.4,13.1,104.4,13.2 M103,11.1c-0.3-0.1-0.6-0.3-0.9-0.4
		c-0.1,0-0.1-0.1,0-0.1c0.3-0.2,0.7-0.3,1.1-0.3c0.1,0,0.1,0,0.1,0.1c-0.1,0.2-0.1,0.5-0.2,0.7C103.1,11.1,103,11.1,103,11.1
		 M102.9,11.8c-0.1,0.2-0.1,0.5-0.2,0.7c0,0.1-0.1,0.1-0.1,0.1c-0.3-0.1-0.6-0.3-0.9-0.4c-0.1,0-0.1-0.1,0-0.1
		c0.3-0.2,0.7-0.3,1.1-0.3C102.9,11.7,102.9,11.8,102.9,11.8 M102.6,13.4c-0.1,0.2-0.1,0.5-0.2,0.7c0,0.1-0.1,0.1-0.1,0.1
		c-0.3-0.1-0.6-0.3-0.9-0.4c-0.1,0-0.1-0.1,0-0.1c0.3-0.2,0.7-0.3,1.1-0.3C102.5,13.3,102.6,13.3,102.6,13.4 M101.1,11.4
		c-0.3-0.1-0.6-0.3-0.9-0.4c-0.1,0-0.1-0.1,0-0.1c0.3-0.2,0.7-0.3,1.1-0.3c0.1,0,0.1,0,0.1,0.1c-0.1,0.2-0.1,0.5-0.2,0.7
		C101.2,11.4,101.2,11.4,101.1,11.4 M100.9,12.9c0,0.1-0.1,0.1-0.1,0.1c-0.3-0.1-0.6-0.3-0.9-0.4c-0.1,0-0.1-0.1,0-0.1
		c0.3-0.2,0.7-0.3,1.1-0.3c0.1,0,0.1,0,0.1,0.1C101,12.4,100.9,12.7,100.9,12.9 M100.5,14.5c0,0.1-0.1,0.1-0.1,0.1
		c-0.3-0.1-0.6-0.3-0.9-0.4c-0.1,0-0.1-0.1,0-0.1c0.3-0.2,0.7-0.3,1.1-0.3c0.1,0,0.1,0,0.1,0.1C100.6,14,100.6,14.2,100.5,14.5
		 M99.4,11.7c0,0.1-0.1,0.1-0.1,0.1c-0.3-0.1-0.6-0.3-0.9-0.4c-0.1,0-0.1-0.1,0-0.1c0.3-0.2,0.7-0.3,1.1-0.3c0.1,0,0.1,0,0.1,0.1
		C99.6,11.2,99.5,11.5,99.4,11.7 M99.2,12.7c-0.1,0.2-0.1,0.5-0.2,0.7c0,0.1-0.1,0.1-0.1,0.1c-0.3-0.1-0.6-0.3-0.9-0.4
		c-0.1,0-0.1-0.1,0-0.1c0.3-0.2,0.7-0.3,1.1-0.3C99.2,12.6,99.2,12.6,99.2,12.7 M98.9,14.3c-0.1,0.2-0.1,0.5-0.2,0.7
		c0,0.1-0.1,0.1-0.1,0.1c-0.3-0.1-0.6-0.3-0.9-0.4c-0.1,0-0.1-0.1,0-0.1c0.3-0.2,0.7-0.3,1.1-0.3C98.8,14.2,98.9,14.2,98.9,14.3
		 M97.5,12.3c-0.3-0.1-0.6-0.3-0.9-0.4c-0.1,0-0.1-0.1,0-0.1c0.3-0.2,0.7-0.3,1.1-0.4c0.1,0,0.1,0,0.1,0.1c-0.1,0.2-0.1,0.5-0.2,0.7
		C97.6,12.3,97.6,12.3,97.5,12.3 M97.4,13.1c-0.1,0.2-0.1,0.5-0.2,0.7c0,0.1-0.1,0.1-0.1,0.1c-0.3-0.1-0.6-0.3-0.9-0.4
		c-0.1,0-0.1-0.1,0-0.1c0.3-0.2,0.7-0.3,1.1-0.3C97.4,13,97.5,13.1,97.4,13.1 M95.9,12.4c0,0.1-0.1,0.1-0.1,0.1
		c-0.3-0.1-0.6-0.3-0.9-0.4c-0.1,0-0.1-0.1,0-0.1c0.3-0.2,0.7-0.3,1.1-0.3c0.1,0,0.1,0,0.1,0.1C96,11.9,95.9,12.1,95.9,12.4
		 M95.5,13.9c0,0.1-0.1,0.1-0.1,0.1c-0.3-0.1-0.6-0.3-0.9-0.4c-0.1,0-0.1-0.1,0-0.1c0.3-0.2,0.7-0.3,1.1-0.3c0.1,0,0.1,0,0.1,0.1
		C95.6,13.4,95.6,13.7,95.5,13.9 M93.8,10.9c-0.1,0-0.1-0.1,0-0.1c0.3-0.2,0.7-0.3,1.1-0.3c0.1,0,0.1,0,0.1,0.1
		c-0.1,0.2-0.1,0.5-0.2,0.7c0,0.1-0.1,0.1-0.1,0.1C94.4,11.2,94.2,11.1,93.8,10.9 M93.9,13.1c0,0.1-0.1,0.1-0.1,0.1
		c-0.3-0.1-0.6-0.3-0.9-0.4c-0.1,0-0.1-0.1,0-0.1c0.3-0.2,0.7-0.3,1.1-0.3c0.1,0,0.1,0,0.1,0.1C94,12.6,94,12.8,93.9,13.1 M92,11.3
		c-0.1,0-0.1-0.1,0-0.1c0.3-0.2,0.7-0.3,1.1-0.4c0.1,0,0.1,0,0.1,0.1c-0.1,0.2-0.1,0.5-0.2,0.7c0,0.1-0.1,0.1-0.1,0.1
		C92.6,11.6,92.3,11.5,92,11.3 M91.9,9.7c0.3-0.2,0.7-0.3,1.1-0.3c0.1,0,0.1,0,0.1,0.1c-0.1,0.2-0.1,0.5-0.2,0.7
		c0,0.1-0.1,0.1-0.1,0.1c-0.3-0.1-0.6-0.3-0.9-0.4C91.8,9.8,91.8,9.8,91.9,9.7 M92.3,8.3C92.6,8.1,93,8,93.3,7.9
		c0.1,0,0.1,0,0.1,0.1c-0.1,0.2-0.1,0.5-0.2,0.7c0,0.1-0.1,0.1-0.1,0.1c-0.3-0.1-0.6-0.3-0.9-0.4C92.2,8.4,92.2,8.3,92.3,8.3
		 M93.4,7c0.3-0.2,0.7-0.3,1.1-0.3c0.1,0,0.1,0,0.1,0.1c-0.1,0.2-0.1,0.5-0.2,0.7c0,0.1-0.1,0.1-0.1,0.1c-0.3-0.1-0.6-0.3-0.9-0.4
		C93.3,7.1,93.3,7,93.4,7 M94.8,9.1c-0.1,0.2-0.1,0.5-0.2,0.7c0,0.1-0.1,0.1-0.1,0.1c-0.3-0.1-0.6-0.3-0.9-0.4c-0.1,0-0.1-0.1,0-0.1
		C94,9.2,94.4,9.1,94.7,9C94.8,9,94.9,9,94.8,9.1 M95.5,7.7c0.1,0,0.1,0,0.1,0.1c-0.1,0.2-0.1,0.5-0.2,0.7c0,0.1-0.1,0.1-0.1,0.1
		c-0.3-0.1-0.6-0.3-0.9-0.4c-0.1,0-0.1-0.1,0-0.1C94.8,7.9,95.1,7.8,95.5,7.7 M94.8,6c0.3-0.2,0.7-0.3,1.1-0.3c0.1,0,0.1,0,0.1,0.1
		c-0.1,0.2-0.1,0.5-0.2,0.7c0,0.1-0.1,0.1-0.1,0.1c-0.3-0.1-0.6-0.3-0.9-0.4C94.8,6.1,94.8,6.1,94.8,6 M96.4,5.3
		c0.3-0.2,0.7-0.3,1.1-0.3c0.1,0,0.1,0,0.1,0.1c-0.1,0.2-0.1,0.5-0.2,0.7c0,0.1-0.1,0.1-0.1,0.1c-0.3-0.1-0.6-0.3-0.9-0.4
		C96.4,5.4,96.4,5.3,96.4,5.3 M116.8,9.8c0.5,0,0.8,0.4,0.8,0.5c0,0-0.7,0.2-1.1,0.2c-0.2,0-0.3,0-0.4-0.2
		C116.2,10.2,116.4,9.8,116.8,9.8 M118.6,9.8c0.1-0.2,0.2-0.3,0.4-0.3c0.3,0,0.4,0.3,0.4,0.4l-0.7,0.2
		C118.6,10.1,118.6,10,118.6,9.8 M126.6,15.8c-0.3-0.2-0.6-0.2-0.8-0.3c-0.4-0.1-0.5-0.6-0.6-0.6c-0.3-0.1-0.5,0.3-0.7,0.3
		c-0.2-0.1-0.2-0.6-0.4-0.7c-0.3-0.1-0.6,0.3-0.7,0.3c-0.2-0.1-0.3-0.6-0.4-0.7c-0.3-0.1-0.6,0.3-0.7,0.3c-0.2-0.1-0.2-0.6-0.4-0.7
		c-0.3-0.1-0.6,0.3-0.8,0.3c-0.2,0-0.5-0.1-1-0.4c-0.1-0.1-0.4-0.3-0.5-0.3c-0.1,0-0.2,0-0.1,0.2c0.1,0.6,1.1,1,2.3,1.4
		c1.2,0.3,2.3,0.7,3,1c0.4,0.2,0.6,0.4,0.5,0.7c-0.1,0.2-0.4,0.2-0.7,0c-0.3-0.2-0.4-0.4-0.6-0.5c-0.3-0.1-0.6,0.4-0.8,0.4
		c-0.3-0.1-0.3-0.6-0.5-0.7c-0.3-0.1-0.7,0.4-0.9,0.4c-0.2,0-0.3-0.7-0.5-0.7c-0.3-0.1-0.7,0.4-0.9,0.4c-0.2,0-0.3-0.7-0.5-0.7
		c-0.3-0.1-0.8,0.4-1.2,0.1c-1.5-1-1.2-1.5-2.4-1.9c-0.6-0.2-1.3,0-1.8,0.1c-1,0.1-1-0.8-1-0.8c0.3,0.1,0.7,0.3,1.5,0
		c0.8-0.3,1.3-0.4,2.4,0c0.9,0.3,1.4,0,1.8,0c0.2,0,0.3-0.1,0.6,0.1c0.3,0.2,0.6,0.4,0.7,0.3c0.2-0.1,0.1-0.7,0.5-0.8
		c0.2-0.1,0.7,0.4,0.9,0.3c0.2-0.1,0.1-0.7,0.5-0.8c0.2-0.1,0.7,0.4,0.9,0.3c0.2-0.1,0.1-0.7,0.5-0.8c0.2-0.1,0.7,0.4,0.9,0.3
		c0.2-0.1,0.1-0.7,0.5-0.8c0.2-0.1,0.7,0.4,0.9,0.3c0.2-0.1,0.2-0.2,0.3-0.7c0-0.1,0.1-0.2,0.2-0.2c0.2-0.2,0.6-0.6,0.4-1.1
		c-0.2-0.4-0.6-0.4-1.4-0.2c-0.7,0.1-5.2,1.1-5.2,1.1c-0.7-1.3-1.2-0.4-2.2-0.6c-0.7-0.1-1.7-0.7-3.4,0.8c-0.9-0.3-1.7,0-2.3,0.3
		c-1-0.4-2.9-1.4-6.6-1.4c-1,0-3.5,0.2-7.4,1.2c-1,0.3-1.9,0.2-2.1-0.4c-0.2-0.6,0.6-1.3,2.1-2c3.8-1.8,6.3-1.4,11.3-4
		c2.7-1.4,2.9-3.1,2.9-3.5c0-0.3-0.3-0.4-0.4-0.1c-0.9,1.3-1.1,1.2-1.4,0.9c-0.4-0.4-0.6,0.2-1,0.5c-0.3,0.2-0.4,0-0.6-0.2
		c-0.4-0.3-0.8,0.5-1.2,0.7c-0.4,0.2-0.5,0-0.6-0.2c-0.1-0.1-0.3-0.1-0.4,0c-0.9,0.8-1,0.7-1.2,0.5c-0.2-0.2-0.3-0.3-0.9,0.2
		c-0.3,0.3-0.9,0.7-1,0.3c-0.2-0.4-0.3-0.6-1.1,0.1c-0.5,0.4-0.8,0.5-0.9,0.3c-0.1-0.2-0.1-0.8-0.9-0.2c-0.7,0.5-1,0.8-1.2,0.3
		c-0.2-0.5-0.7-0.1-1.1,0.3c-0.2,0.2-0.5,0.6-0.8,0.2c-0.3-0.4-0.7,0-1.2,0.6c-0.3,0.3-0.5,0.2-0.8,0c-0.3-0.2-0.7,0.6-1.2,1.2
		c-0.1,0.1-0.2,0.1-0.5-0.1c-0.4-0.3-1,1.1-1.2,1.4c-0.3,0.5-0.6-0.1-0.9,0.3c-0.8,1.1-1.6,2.4-1.8,4.6c-0.3,2.7,0.7,4.8,1.7,5.6
		c0,0-0.1,0.3-0.3,0.7c-0.3,0.7-0.4,1.7,0,2.4c0.3,0.7,1.2,1.8,1.5,0.7c0.1-0.5,0.3-0.5,0.8-0.1c0.7,0.5,0.6-0.4,0.7-0.7
		c0.1-0.2,0.2-0.3,0.8,0.1c0.3,0.2,0.5-0.1,0.6-0.5c0.3-1.3-0.3-1.6-0.9-1.8c-0.5-0.1-0.9,0-0.9,0c1-1.5,1.1-2.3,0-3.1
		c0.2-0.1,0.3,0,0.4,0c0.3,0.1,0.5,0.3,0.6,0.6c0.2,0.3,0.4,0.9-0.1,1.9c0.2,0,1,0.1,1.4,0.9c0.5,0.2,3.6,0.4,5,0.2
		c0.5-0.1,0.7-0.5,1.2-1c0.5-0.5,1.2-1,1.7-0.6c-1,0.4-1.6,1.1-1.6,2.1c0,0.7,0.3,1,0.8,1.4c0.5,0.4,0.6,1,0.8,1.5
		c0.2,0.6,0.7,0.6,0.8,0c0.1-0.8,0.4-0.6,0.7-0.3c0.4,0.4,0.7,0.3,0.7-0.2c0-0.6,0.2-0.8,0.8-0.2c0.2,0.3,0.6,0.2,0.5-0.3
		c0-0.7,0.3-0.6,0.7-0.3c0.1,0.1,0.2,0.2,0.3,0.2c0.3,0,0.5-0.6,0.3-1.1c-0.1-0.2-0.3-0.6-1.9-0.9c-0.5-0.1-0.4-0.5-0.4-0.5
		c3.8,0.2,7.1-0.3,9.2-1.6c2.6,0.6,6.5,0.7,7.8,0.7c1.3,0,2.2-0.1,3-0.5C127.1,16.7,127,16.1,126.6,15.8"/>
	<path d="M117,12.5c-1.1-0.4-1.5-0.3-2.4,0c-0.8,0.3-1.2,0.1-1.5,0c0,0,0,0.9,1,0.8c0.4,0,1.2-0.3,1.8-0.1c1.2,0.3,0.9,0.9,2.4,1.9
		c0.5,0.2,0.9-0.3,1.2-0.1c0.2,0.1,0.3,0.7,0.5,0.7c0.2,0,0.6-0.5,0.9-0.4c0.2,0.1,0.3,0.7,0.5,0.7c0.2,0,0.6-0.5,0.9-0.4
		c0.2,0.1,0.3,0.7,0.5,0.7c0.2,0,0.6-0.5,0.8-0.4c0.2,0.1,0.3,0.3,0.6,0.5c0.3,0.2,0.6,0.1,0.7,0c0.2-0.2,0-0.5-0.5-0.7
		c-0.7-0.3-1.9-0.7-3-1c-1.2-0.3-2.2-0.8-2.3-1.4c0-0.2,0.1-0.2,0.1-0.2c-0.4-0.3-0.5-0.6-0.5-0.8h0c0,0-0.1,0-0.1,0
		C118.5,12.5,118,12.8,117,12.5"/>
	<path class="st0" d="M12,13.8l-0.6-0.1c-0.1,0-0.1,0-0.1,0.1c-1,3.2-2.5,4.4-4.9,4.4c-0.8,0-1.7-0.2-2.3-0.5V5.2c0-1.9,0.7-2,1.7-2
		h0c0.1,0,0.1,0,0.1-0.1V2.7c0-0.1,0-0.1-0.1-0.1H0.1C0,2.6,0,2.6,0,2.7v0.4c0,0.1,0,0.1,0.1,0.1h0c0.9,0,1.7,0.1,1.7,2v11
		c0,1.9-0.7,2-1.7,2h0c-0.1,0-0.1,0-0.1,0.1v0.4c0,0.1,0,0.1,0.1,0.1h10.4c0,0,0.1,0,0.1-0.1l1.5-4.9C12.1,13.9,12.1,13.8,12,13.8"
		/>
	<path class="st0" d="M36.3,14.3l-0.5-0.2c0,0-0.1,0-0.1,0c-1,2-2.3,3.6-4.6,3.6c-3.2,0-4.5-3.3-4.5-7c0-1.4,0.1-7.4,4.2-7.4
		c2.6,0,3.4,2.5,4,4.9c0,0.1,0.1,0.1,0.1,0.1l0.5-0.1c0.1,0,0.1-0.1,0.1-0.1l-0.5-4.9c0,0,0-0.1-0.1-0.1c-0.3,0-0.8,0-1.3-0.1
		c-0.8-0.3-1.7-0.7-2.8-0.7c-4.1,0-6.6,3.8-6.6,8.2c0,5.1,2.3,8.8,6.3,8.8c2.5,0,4.6-1.2,5.9-4.8C36.4,14.4,36.4,14.3,36.3,14.3"/>
	<path class="st0" d="M43.4,18.4c-2.6,0-3.8-3.3-3.8-7.6c0-4.3,1.3-7.7,3.8-7.7c2.6,0,3.9,3.5,3.9,7.7
		C47.2,15.1,45.9,18.4,43.4,18.4 M43.4,2.2c-3.9,0-6.3,3.8-6.3,8.5s2.4,8.4,6.3,8.4c3.9,0,6.3-3.7,6.3-8.4S47.3,2.2,43.4,2.2"/>
	<path class="st0" d="M71.8,2.6H61.4c0,0-0.1,0.1-0.1,0.1L61,7c0,0.1,0,0.1,0.1,0.1l0.5,0c0.1,0,0.1,0,0.1-0.1
		c0.3-1.6,0.6-2.4,1.1-2.9c0.5-0.6,1.3-0.9,2.7-0.9v12.9c0,1.9-0.7,2-1.7,2h0c-0.1,0-0.1,0-0.1,0.1v0.4c0,0.1,0,0.1,0.1,0.1h5.6
		c0.1,0,0.1,0,0.1-0.1v-0.4c0-0.1,0-0.1-0.1-0.1h0c-0.9,0-1.7-0.1-1.7-2V3.4c1.4,0,2.1,0.3,2.7,0.9c0.5,0.5,0.8,1.3,1.1,2.9
		c0,0.1,0.1,0.1,0.1,0.1l0.5,0c0.1,0,0.1-0.1,0.1-0.1L72,2.7C72,2.6,71.9,2.6,71.8,2.6"/>
	<path class="st0" d="M85,13.9l-0.5-0.1c-0.1,0-0.1,0-0.1,0.1c-0.9,2.8-2.3,4.3-4.7,4.3c-0.7,0-1.6-0.2-2.3-0.5v-6.9h0.9
		c1.8,0,2.4,1,2.4,2.7c0,0.1,0,0.1,0.1,0.1h0.5c0.1,0,0.1,0,0.1-0.1V7.3c0-0.1,0-0.1-0.1-0.1h-0.5c-0.1,0-0.1,0-0.1,0.1
		c0,1.7-0.6,2.6-2.4,2.6h-0.9V3.4h2.4c2.5,0,3.1,1.1,3.8,3.7c0,0.1,0,0.1,0.1,0.1l0.5-0.1c0.1,0,0.1,0,0.1-0.1l-0.3-4.3
		c0,0-0.1-0.1-0.1-0.1H73.4c-0.1,0-0.1,0-0.1,0.1v0.4c0,0.1,0,0.1,0.1,0.1h0c0.9,0,1.7,0.1,1.7,2v11c0,1.9-0.7,2-1.7,2h0
		c-0.1,0-0.1,0-0.1,0.1v0.4c0,0.1,0,0.1,0.1,0.1h10.5c0,0,0.1,0,0.1-0.1l1.1-4.8C85.1,13.9,85.1,13.9,85,13.9"/>
	<path class="st0" d="M56.5,9.3c-2-1-3.9-2.1-3.9-3.8c0-1.3,1.1-2.3,2.5-2.3c2.6,0,3.2,1.8,3.9,4c0,0,0.1,0.1,0.1,0.1l0.5,0
		c0.1,0,0.1-0.1,0.1-0.1l-0.4-4.3c0-0.1-0.1-0.1-0.1-0.1c-0.1,0-0.4,0.1-0.7,0.1c-0.9,0-1.4-0.5-3.2-0.5c-2.4,0-4.3,1.5-4.3,4.1
		c0,2.6,2.1,3.9,4.3,5.1c2,1.1,3.6,2.1,3.6,3.9c0,2.6-2.1,2.9-2.9,2.9c-2.7,0-3.7-2.1-4.6-4.8c0-0.1-0.1-0.1-0.2-0.1l-0.5,0.1
		c-0.1,0-0.1,0.1-0.1,0.1l0.7,5.2c0,0.1,0.1,0.1,0.2,0.1c0.4-0.1,0.7-0.2,1.1-0.2c1.1,0,1.5,0.6,3.4,0.6c2.3,0,4.7-1.5,4.7-4.5
		C60.7,12.2,59,10.6,56.5,9.3"/>
	<path class="st0" d="M15.5,12.5l2-6.2l2.4,6.2H15.5z M25.7,18.2c-0.6-0.1-1.3-0.6-2.1-2.5L18.4,2.6c0,0,0-0.1-0.1-0.1h-2.2
		c-0.2,0-0.2,0.1-0.1,0.2c0.1,0.1,0.2,0.3,0.3,0.6c0,0,0.4,0.9,0.4,0.9l0,0c0.2,0.4,0.2,0.9,0,1.3l-3.3,10.1
		c-0.6,1.7-1.1,2.4-1.9,2.5c-0.1,0-0.1,0.1-0.1,0.1v0.4c0,0.1,0.1,0.1,0.1,0.1h3.9c0.1,0,0.1-0.1,0.1-0.1v-0.4c0-0.1,0-0.1-0.1-0.1
		c-1.4,0-1.6-0.6-1.2-2l0.9-2.8h5.1l1.1,2.7c0.6,1.4-0.2,2-1.3,2.1c-0.1,0-0.1,0.1-0.1,0.1v0.4c0,0.1,0.1,0.1,0.1,0.1h5.7
		c0.1,0,0.1-0.1,0.1-0.1v-0.4C25.8,18.3,25.8,18.2,25.7,18.2"/>
</g>
</svg>
