<?xml version="1.0" encoding="utf-8"?>
<!-- Generator: Adobe Illustrator 24.0.2, SVG Export Plug-In . SVG Version: 6.00 Build 0)  -->
<svg version="1.1" id="Layer_1" xmlns="http://www.w3.org/2000/svg" xmlns:xlink="http://www.w3.org/1999/xlink" x="0px" y="0px"
	 viewBox="0 0 314.9 44.8" style="enable-background:new 0 0 314.9 44.8;" xml:space="preserve">
<style type="text/css">
	.st0{fill:#FFFFFF;}
	.st1{clip-path:url(#SVGID_3_);}
	.st2{fill-rule:evenodd;clip-rule:evenodd;fill:#FFFFFF;}
</style>
<g>
	<defs>
		<rect id="SVGID_2_" width="314.9" height="44.8"/>
	</defs>
	<clipPath id="SVGID_3_">
		<use xlink:href="#SVGID_2_"  style="overflow:visible;"/>
	</clipPath>
	<g class="st1">
		<path class="st2" d="M34.6,0l-5.5,12.9l0,0c-0.3,0.7-1,2.1-2,3c-0.4,0.3-0.8,0.6-1.2,0.8V17h4.7v-0.2c-0.5-0.3-0.8-0.8-0.9-1.4
			c-0.1-0.7,0.2-1.5,0.5-2.4l0.6-1.5h5.7l0.7,1.8c0.4,1,0.5,1.7,0.3,2.3c-0.1,0.5-0.4,0.8-0.9,1.1v0.2h6.6v-0.2
			c-0.6-0.3-1-0.7-1.4-1.1c-0.6-0.7-1.1-1.7-1.5-2.6L34.9,0H34.6z M31.3,10.4l2.5-5.8l2.4,5.8H31.3z M309.5,6.5
			c0.3,0.1,0.5,0.3,0.7,0.4c0.3,0.2,0.7,0.4,1,0.6l0,0c1.8,1,3.6,2.1,3.6,4.5c0,2.9-2.8,5-5.4,5c-2.2,0-4.3-0.8-5.4-1.4l-0.2-4h0.2
			c0.4,0.8,0.7,1.4,1.1,2c1.5,2,2.9,2.4,4.1,2.4c1.6,0,2.8-0.7,2.8-2.2c0-1.6-1.8-2.7-3.9-3.9L308,9.6c-0.2-0.1-0.4-0.2-0.5-0.3
			c-1.8-1.1-3.5-2.1-3.5-4.5c0-2.9,2.7-4.7,4.9-4.7c1.1,0,2.3,0.1,4.7,0.9l0.3,3.8h-0.2c0-0.1-0.1-0.2-0.1-0.3
			c-0.6-1.5-1.4-3.3-4.2-3.4c-1.3,0-2.8,0.6-2.8,2.1C306.5,4.8,308.3,5.8,309.5,6.5z M270.9,11.3L263.7,2c-0.4-0.5-0.9-1.1-1.5-1.4
			s-1.3-0.3-2-0.3h-0.1h-2.8v0.2c1.8,0.7,2.8,2,2.8,4.1V13c0,0.9-0.1,1.8-0.6,2.5c-0.4,0.5-0.9,0.9-1.8,1.3V17h6v-0.2
			c-0.9-0.3-1.5-0.8-1.8-1.3c-0.5-0.7-0.6-1.5-0.6-2.5V3.7L271.4,17h0.7V4.2c0-0.9,0.1-1.8,0.6-2.5c0.4-0.5,0.9-0.9,1.8-1.3V0.3h-6
			v0.2c0.9,0.3,1.5,0.8,1.8,1.3c0.5,0.7,0.6,1.5,0.6,2.5V11.3z M184.7,39.1c0,1.8,0.4,3.2,1.3,4.2c0.9,1,2.1,1.5,3.6,1.5
			c1.6,0,2.8-0.5,3.6-1.5c0.9-1,1.3-2.4,1.3-4.2s-0.4-3.2-1.3-4.2c-0.9-1-2.1-1.5-3.6-1.5c-1.6,0-2.8,0.5-3.6,1.5
			C185.2,35.9,184.7,37.3,184.7,39.1z M192.5,42c-0.2,0.7-0.6,1.3-1,1.6c-0.5,0.3-1.1,0.5-1.8,0.5s-1.3-0.2-1.8-0.5s-0.8-0.9-1-1.6
			c-0.2-0.7-0.3-1.7-0.3-2.9s0.1-2.2,0.3-2.9s0.6-1.3,1-1.6c0.5-0.3,1.1-0.5,1.8-0.5c0.8,0,1.4,0.2,1.8,0.5c0.5,0.3,0.8,0.9,1,1.6
			c0.2,0.7,0.3,1.7,0.3,2.9C192.9,40.3,192.7,41.3,192.5,42z M86.4,44.5V44c1.1,0.1,2.2,0.2,3.1,0.2c1.1,0,1.9-0.2,2.5-0.5
			s0.9-0.9,0.9-1.6c0-0.4-0.1-0.6-0.2-0.9c-0.1-0.2-0.3-0.4-0.5-0.6c-0.2-0.2-0.5-0.3-0.8-0.4c-0.3-0.1-0.8-0.3-1.5-0.5
			c-0.6-0.2-1.1-0.3-1.5-0.5s-0.8-0.4-1-0.6c-0.3-0.2-0.5-0.5-0.7-0.9c-0.1-0.3-0.2-0.7-0.2-1.2c0-1.1,0.4-1.9,1.1-2.3
			c0.8-0.5,1.8-0.7,3.1-0.7c0.4,0,0.8,0,1.4,0.1c0.5,0.1,1,0.1,1.5,0.2v0.5c-1-0.1-1.9-0.2-2.6-0.2c-1,0-1.7,0.2-2.2,0.5
			S88,35.4,88,36.1c0,0.3,0,0.6,0.1,0.8s0.3,0.4,0.5,0.5c0.2,0.2,0.5,0.3,0.8,0.4c0.3,0.1,0.8,0.3,1.4,0.4c0.6,0.2,1.1,0.3,1.5,0.5
			s0.7,0.3,1,0.6s0.6,0.6,0.8,0.9c0.2,0.4,0.2,0.8,0.2,1.3c0,1.1-0.4,1.9-1.3,2.5c-0.9,0.5-2,0.8-3.3,0.8
			C88.7,44.8,87.5,44.7,86.4,44.5z M103.7,33.6h1.7v11.1h-1.7V33.6z M116.1,33.6h-1v11.1h0.7v-8.8l6.7,8.8h0.9V33.6h-0.7v8.5
			L116.1,33.6z M133.9,43.4c-1-0.9-1.4-2.3-1.4-4.3s0.5-3.4,1.4-4.3c1-0.9,2.4-1.4,4.2-1.4c1,0,2,0.1,3,0.3v0.5
			c-1-0.1-1.9-0.2-2.6-0.2c-1.2,0-2,0.2-2.7,0.5c-0.6,0.3-1,0.8-1.3,1.5c-0.2,0.7-0.4,1.7-0.4,3s0.1,2.3,0.4,3
			c0.2,0.7,0.7,1.2,1.3,1.5s1.4,0.5,2.5,0.5c0.6,0,1.1,0,1.5-0.1v-4.8h-2.4v-0.6h4v5.9c-1,0.2-2.1,0.2-3.4,0.2
			C136.3,44.8,134.9,44.3,133.9,43.4z M155.4,33.6h-1.5l-4,11.1h0.7l1.2-3.4h4.7l1.2,3.4h1.8L155.4,33.6z M154.1,34.8l2.1,5.9H152
			L154.1,34.8z M168.1,33.6h4c1.3,0,2.3,0.3,3,0.8c0.7,0.6,1.1,1.4,1.1,2.6c0,1.2-0.3,2-1,2.7c-0.7,0.6-1.7,0.9-2.9,0.9h-2.4v4.1
			h-1.7V33.6H168.1z M173.9,39.3c0.4-0.4,0.6-1.2,0.6-2.3c0-1-0.2-1.8-0.6-2.2c-0.4-0.4-1.1-0.6-2-0.6h-2V40h2.1
			C172.8,39.9,173.5,39.7,173.9,39.3z M203.8,33.6h3.9c1.4,0,2.4,0.3,3.2,0.8s1.1,1.4,1.1,2.5c0,0.9-0.2,1.5-0.7,2.1
			c-0.5,0.5-1.1,0.9-2,1.1l2.7,4.6h-1.8l-2.6-4.4h-2.2v4.4h-1.6L203.8,33.6L203.8,33.6z M209.2,39.3c0.4-0.2,0.7-0.5,0.8-0.9
			c0.2-0.4,0.3-0.9,0.3-1.6c0-0.7-0.1-1.2-0.3-1.6c-0.2-0.4-0.5-0.7-0.9-0.8c-0.4-0.2-0.9-0.3-1.6-0.3h-2.1v5.4h2.2
			C208.3,39.6,208.8,39.5,209.2,39.3z M228.5,33.6h-7.3v11.1h7.4v-0.6h-5.7v-4.8h5.1v-0.6h-5.1v-4.5h5.6V33.6z M59.5,8.7
			c0.4,1,2.5,4.5,3.2,5.4l0,0c0.2,0.3,1.7,2.2,3.2,2.6v0.2c-4.1,0.2-4.9,0-7.2-3.7l-2.2-4.1V9C57.9,9,59,7.1,59,5.1
			c0-2.3-1.2-3.8-2.6-3.8h-1.8V13c0,1,0.1,1.9,0.5,2.6c0.3,0.4,0.7,0.8,1.3,1.1V17h-6.7v-0.2c0.6-0.3,1-0.7,1.3-1.1
			c0.4-0.7,0.5-1.6,0.5-2.6V4.2c0-0.8-0.1-1.6-0.3-2.2c-0.3-0.6-0.7-1.2-1.5-1.6V0.3h6.2c2.7,0,6.2,1.1,6.2,4.5
			C62.2,6.6,61,8.1,59.5,8.7z M153.5,8c1.5-0.4,3.1-2.2,3.1-3.9c0-2.8-3-3.8-6.3-3.8h-6.6v0.2c0.6,0.3,1,0.6,1.3,1.1
			c0.5,0.7,0.6,1.7,0.6,2.7V13c0,1-0.1,1.9-0.5,2.6c-0.3,0.5-0.7,0.9-1.3,1.2V17h6.8c4.1,0,7.1-1,7.1-4.7
			C157.7,10.2,155.4,8.4,153.5,8L153.5,8z M148.6,15.9V1.3h2.1c1.3,0,3,1,3,3.3c0,1.7-0.9,3.3-3.3,3.7v0.1c2.1,0.4,4.3,1.8,4.3,3.9
			c0,2.4-1.2,3.5-3.7,3.5L148.6,15.9L148.6,15.9z M79.6,16.7V17h-6.7v-0.2c0.5-0.3,0.9-0.6,1.2-1c0.5-0.7,0.6-1.7,0.6-2.8V4.2
			c0-1.1-0.1-2.1-0.6-2.8c-0.3-0.4-0.6-0.7-1.2-1V0.3h6.7v0.2c-0.6,0.3-1,0.7-1.3,1.2c-0.4,0.7-0.5,1.6-0.5,2.5V13
			c0,1,0.1,1.8,0.5,2.5C78.6,16,79,16.4,79.6,16.7z M287.7,17h-6v-0.2c0.7-0.3,1.1-0.8,1.4-1.4c0.3-0.7,0.4-1.5,0.4-2.4V4.2
			c0-1.1-0.1-2-0.6-2.8c-0.3-0.4-0.7-0.7-1.2-1V0.3h6c4.8,0,8.5,3.1,8.5,8.4C296.2,13.9,292.5,17,287.7,17z M286.5,15.9h1.7
			c4-0.1,4.6-3.9,4.6-7.3s-0.5-7.2-4.6-7.3h-1.7V15.9z M14.3,2l-3.8,10.1L6.4,2V1.9l0,0C6.2,1.5,6,1.1,5.6,0.7
			C5.2,0.4,4.7,0.3,4.2,0.3H0v0.2c1.5,0.7,2.4,2,2.4,4.1V13c0,1.6-0.3,3-2.4,3.8V17h6v-0.2C3.9,16,3.6,14.6,3.6,13V3l5.7,14h0.4
			l5.4-14v10c0,1.6-0.2,3-1.8,3.8V17H20v-0.2c-1.6-0.8-1.8-2.1-1.8-3.8V4.2c0-1.6,0.2-3,1.8-3.8V0.3h-3.4c-0.5,0-0.9,0.1-1.2,0.3
			C14.7,1,14.6,1.4,14.3,2L14.3,2z M223.3,6.5c0.3,0.1,0.5,0.3,0.7,0.4c0.3,0.2,0.7,0.4,1,0.6c1.8,1,3.6,2.1,3.6,4.5
			c0,2.9-2.8,5-5.4,5c-2.2,0-4.3-0.8-5.4-1.4l-0.2-4h0.2c0.4,0.8,0.7,1.4,1.1,2c1.4,2,2.9,2.4,4.1,2.4c1.6,0,2.8-0.7,2.8-2.2
			c0-1.6-1.8-2.7-3.9-3.9l-0.3-0.2c-0.2-0.1-0.4-0.2-0.5-0.3c-1.8-1.1-3.5-2.1-3.5-4.5c0-2.9,2.7-4.7,4.9-4.7c1.1,0,2.3,0.1,4.7,0.9
			l0.3,3.8h-0.2c0-0.1-0.1-0.2-0.1-0.3l0,0l0,0c-0.6-1.5-1.4-3.3-4.2-3.4c-1.3,0-2.8,0.6-2.8,2.1C220.3,4.8,222,5.8,223.3,6.5z
			 M113.2,12.9L118.8,0h0.3l5.6,13c0.4,0.9,0.9,1.9,1.5,2.6c0.4,0.4,0.8,0.8,1.4,1.1V17H121v-0.2c0.5-0.3,0.7-0.7,0.9-1.1
			c0.2-0.7,0.1-1.3-0.3-2.3l-0.7-1.8H115l-0.6,1.5c-0.4,0.9-0.6,1.7-0.5,2.4c0.1,0.6,0.3,1.1,0.9,1.4v0.2H110v-0.2
			c0.5-0.2,0.9-0.5,1.2-0.8C112.2,15.1,112.9,13.7,113.2,12.9z M117.9,4.6l-2.5,5.8h4.8L117.9,4.6z M172.2,0l-5.5,12.9
			c-0.3,0.7-1,2.1-2,3c-0.4,0.3-0.8,0.6-1.2,0.8V17h4.7v-0.2c-0.5-0.3-0.8-0.8-0.9-1.4c-0.1-0.7,0.2-1.5,0.5-2.4l0.6-1.5h5.7
			l0.7,1.8c0.4,1,0.5,1.7,0.3,2.3c-0.1,0.5-0.4,0.8-0.9,1.1v0.2h6.6v-0.2c-0.6-0.3-1-0.7-1.4-1.1c-0.6-0.7-1.1-1.7-1.5-2.6l-5.6-13
			H172.2z M168.8,10.4l2.5-5.8l2.4,5.8H168.8z M237.6,12.9L243.1,0h0.3l5.6,13c0.4,0.9,0.9,1.9,1.5,2.6c0.4,0.4,0.8,0.8,1.4,1.1V17
			h-6.6v-0.2c0.5-0.3,0.7-0.7,0.9-1.1c0.2-0.7,0.1-1.3-0.3-2.3l-0.7-1.8h-5.7l-0.6,1.5c-0.4,0.9-0.6,1.7-0.5,2.4
			c0.1,0.6,0.3,1.1,0.9,1.4v0.2h-4.7v-0.2c0.5-0.2,0.9-0.5,1.2-0.8C236.6,15.1,237.3,13.7,237.6,12.9z M242.3,4.6l-2.5,5.8h4.8
			L242.3,4.6z M188.3,4c-1.1-1.7-2.2-2.6-4.1-3.5V0.3h7.9v0.2c-0.7,0.2-1.2,0.6-1.4,1.1c-0.1,0.2-0.1,0.4-0.1,0.6
			c0,0.5,0.3,1.2,0.6,1.7l0.1,0.3c0.3,0.6,0.6,1.2,1,2c0.5,1.1,0.9,2.2,1.2,3.2c0.3-1.3,0.7-2.6,1.3-3.9c0.3-0.6,0.5-1.1,0.8-1.7
			l0.1-0.1c0.3-0.7,0.7-1.4,0.5-2c-0.1-0.5-0.6-1-1.3-1.2V0.3h5.7v0.2c-1.9,0.8-2.9,1.9-3.8,3.4c-1.5,2.7-2.6,5.7-2.6,8.8V13
			c0,1,0.1,1.8,0.5,2.5c0.3,0.5,0.7,0.9,1.3,1.2V17h-6.5v-0.2c0.6-0.3,1-0.7,1.3-1.2c0.4-0.7,0.5-1.6,0.5-2.6v-0.3
			C191.3,9.7,190.2,6.9,188.3,4z M94.5,2l7.2,9.3V4.2c0-0.9-0.1-1.8-0.6-2.5c-0.4-0.5-0.9-0.9-1.8-1.3V0.3h6v0.2
			c-0.9,0.3-1.5,0.8-1.8,1.3c-0.5,0.7-0.6,1.5-0.6,2.5V17h-0.7L92,3.7V13c0,0.9,0.1,1.8,0.6,2.5c0.4,0.5,0.9,0.9,1.8,1.3V17h-6v-0.2
			c0.9-0.3,1.5-0.8,1.8-1.3c0.5-0.7,0.6-1.5,0.6-2.5V4.6c0-2.1-1-3.3-2.8-4.1V0.3h2.8h0.1c0.7,0,1.4,0,2,0.3
			C93.6,0.9,94.1,1.5,94.5,2z"/>
	</g>
</g>
</svg>
