<?xml version="1.0" encoding="utf-8"?>
<!-- Generator: Adobe Illustrator 24.0.2, SVG Export Plug-In . SVG Version: 6.00 Build 0)  -->
<svg version="1.1" id="Layer_1" xmlns="http://www.w3.org/2000/svg" xmlns:xlink="http://www.w3.org/1999/xlink" x="0px" y="0px"
	 viewBox="0 0 150 34" style="enable-background:new 0 0 150 34;" xml:space="preserve">
<style type="text/css">
	.st0{fill:#FFFFFF;}
</style>
<path class="st0" d="M24.1,16.4c0,0-1.2-0.7-2-1c0,0-2.2-1-2.7-1.5c0,0-0.9-0.8-0.4-1.8c0,0,0.2-0.6,1.2-0.6c0,0,1.2,0.1,1.2,1V14
	h4.4v-2c0,0,0.3-3.2-5.2-3.4c0,0-0.4,0-1,0c0,0-3.3,0.2-4.5,1.9l0,0c0,0-0.5,0.5-0.5,2.2V14c0,0-0.1,1.5,0.7,2.3
	c0,0,0.4,0.6,1.5,1.3c0,0,2.1,1.1,3.5,1.8c0,0,1.4,0.7,1.2,1.9c0,0-0.1,1.2-1.4,1.1c0,0-1.2-0.1-1.2-1.2v-1.4h-4.7v2
	c0,0-0.1,3.7,5.9,3.7c0,0,5.8,0.1,6-3.8v-1.7C26.1,20,26.3,17.6,24.1,16.4z M95.3,20.9c0,0,0.1,1.3-1.2,1.3c0,0-1.4,0.1-1.4-1.3V9.1
	H88v11.7c0,0-0.5,4.5,6.2,4.5c0,0,5.8,0.1,5.8-4.3V9.1h-4.7L95.3,20.9L95.3,20.9z M115.7,18.7h-0.2L111,9.1h-5.4v15.8h4.3l-0.3-9.6
	h0.2l4.6,9.6h5.2V9.1h-4.4L115.7,18.7z M130.2,16.2v2.3h1.2v2.5c0,1.3-1.1,1.3-1.1,1.3c-1.4,0-1.3-1.2-1.3-1.2v-8.6
	c0-0.9,1.2-1,1.2-1c1.2,0,1.2,1.1,1.2,1.1v1.3h4.4c0.1-2.5-0.4-3.2-0.4-3.2c-1.1-2.3-5.2-2.1-5.2-2.1c-6.3,0-5.7,4.6-5.7,4.6v8.3
	c0.1,4.3,6.3,3.9,6.4,3.9c2.7-0.3,3.6-1.2,3.6-1.2c0.8-0.6,1-1.3,1-1.3c0.2-0.4,0.3-1.9,0.3-1.9v-4.9L130.2,16.2L130.2,16.2z
	 M33.1,9.2l-2.8,15.7H35l1.7-12.1h0.4l1.6,12.1h4.7l-3-15.7H33.1z M58.6,9.1l-1.5,8.6h-0.4l-1.4-8.5h-7.3l-0.2,15.7h4.3V13.1h0.3
	l2.3,11.8h4.6l2.2-11.8h0.3l0.1,11.8h4.4L65.8,9.1H58.6z M81,16.4c0,0-1.2-0.7-2-1c0,0-2.2-1-2.7-1.5c0,0-0.9-0.8-0.4-1.8
	c0,0,0.2-0.6,1.2-0.6c0,0,1.2,0.1,1.2,1V14h4.4v-2c0,0,0.3-3.2-5.2-3.4c0,0-4.3-0.3-5.6,2c0,0-0.5,0.5-0.5,2.2v1.3
	c0,0-0.1,1.5,0.7,2.3c0,0,0.4,0.6,1.5,1.3c0,0,2.1,1.1,3.5,1.8c0,0,1.3,0.7,1.2,1.9c0,0-0.1,1.2-1.4,1.1c0,0-1.2-0.1-1.2-1.2v-1.4
	h-4.6v2c0,0-0.1,3.7,5.9,3.7c0,0,5.8,0.1,6-3.8v-1.6C82.9,20,83.1,17.6,81,16.4"/>
</svg>
