<?xml version="1.0" encoding="utf-8"?>
<!-- Generator: Adobe Illustrator 24.0.2, SVG Export Plug-In . SVG Version: 6.00 Build 0)  -->
<svg version="1.1" id="Layer_1" xmlns="http://www.w3.org/2000/svg" xmlns:xlink="http://www.w3.org/1999/xlink" x="0px" y="0px"
	 viewBox="-1 -8.5 42.5 34" style="enable-background:new 0 0 40.5 17;" xml:space="preserve">
<style type="text/css">
	.st0{fill-rule:evenodd;clip-rule:evenodd;fill:#FFFFFF;}
</style>
<path class="st0" d="M7,0.3c0.6,0.2,1,0.4,1.3,0.5c0.9,0.5,1.5,0.4,1.8-0.3c0.1-0.1,0.2-0.2,0.3-0.2c0.2,0,0.4,0.1,0.4,0.3v4.2
	c0,0.2-0.1,0.3-0.3,0.3l-0.3,0c-0.1,0-0.1-0.1-0.1-0.2c-0.2-1.4-0.9-2.4-2-3.2C7.3,1.1,6.4,0.8,5.4,0.8S3.5,1.1,2.9,1.8
	C2.5,2.3,2.2,3,2.2,3.7s0.3,1.5,1,2.1C3.8,6.2,4.7,6.7,6,7.2c2,0.7,3.4,1.4,4.1,1.9c1.1,0.8,1.6,2,1.6,3.3s-0.4,2.5-1.3,3.3
	C9.5,16.6,8.2,17,6.6,17S4,16.7,2.4,16.1c-0.4-0.2-0.7-0.2-1-0.2c-0.3,0-0.5,0.2-0.7,0.6l-0.1,0.2l-0.2,0c-0.2,0-0.3-0.1-0.3-0.2
	v-4.6c0-0.1,0.1-0.2,0.3-0.2s0.3,0.1,0.3,0.2c0.2,1,0.7,1.9,1.5,2.8c1,1.1,2.3,1.6,3.9,1.6s2-0.3,2.6-0.9c0.5-0.5,0.7-1.2,0.7-2
	S9,11.4,8.1,10.8C7.6,10.4,6.7,10,5.5,9.6L4.2,9.1C3.5,8.8,2.9,8.6,2.5,8.2C1,7.3,0.3,6.1,0.3,4.6s0.5-2.5,1.4-3.3
	C2.6,0.4,3.7,0,5.1,0S6.3,0.1,7,0.3L7,0.3z M36.6,1.7v13.6c0,0.2-0.1,0.5-0.3,0.6c-0.2,0.2-0.4,0.3-0.6,0.3H35
	c-0.3,0-0.5-0.1-0.7-0.3c-0.2-0.2-0.3-0.4-0.3-0.6V1.7c0-0.2,0.1-0.5,0.3-0.7c0.2-0.2,0.4-0.3,0.7-0.3h0.7c0.2,0,0.5,0.1,0.6,0.3
	C36.5,1.2,36.6,1.5,36.6,1.7z M23.4,9h5.9c0.1,0,0.2-0.1,0.2-0.2V8.4c0-0.2-0.1-0.2-0.2-0.2h-5.9c-0.1,0-0.2,0.1-0.2,0.2v0.3
	C23.2,8.9,23.3,9,23.4,9L23.4,9L23.4,9z M26,0.8l0-0.2c0-0.2-0.1-0.3-0.2-0.3h-4.3c-0.2,0-0.3,0.1-0.3,0.3s0.1,0.3,0.3,0.3H22
	c0.4,0,0.6,0.1,0.6,0.4s0,0.2-0.2,0.4c-0.5,0.6-0.8,1.1-1.1,1.4l-5,5.5c-0.2,0.2-0.4,0.2-0.4-0.1V2c0-0.7,0.4-1.1,1.3-1.1l0.3,0
	c0.1,0,0.1-0.1,0.1-0.3s-0.1-0.3-0.2-0.3h-5c-0.3,0-0.4,0.1-0.4,0.3S12.3,1,12.5,1c0.9,0,1.3,0.3,1.3,1.1v13.1
	c0,0.7-0.5,1.1-1.3,1.1s-0.3,0.1-0.3,0.3l0.1,0.3l0.3,0.1h5c0.2,0,0.2-0.1,0.2-0.3s0-0.2-0.1-0.3l-0.3,0c-0.8,0-1.3-0.4-1.3-1.1
	v-4.4c0-0.4,0.1-0.7,0.2-0.8l1.1-1.2c0.2-0.2,0.3-0.2,0.5,0l4.1,6.4c0.1,0.2,0.2,0.4,0.2,0.5c0,0.2-0.1,0.4-0.3,0.5l-0.8,0.1
	c-0.2,0-0.3,0.1-0.3,0.3c0,0.2,0.1,0.3,0.3,0.3h5.6c0.1,0,0.2-0.1,0.2-0.3c0-0.2-0.1-0.3-0.3-0.3c-0.9,0-1.6-0.4-2-1.1l-5.2-8
	c-0.1-0.2-0.2-0.3-0.1-0.4l0.2-0.3l4.1-4.5c0.5-0.6,1.2-0.9,2.1-0.9L26,0.8L26,0.8L26,0.8z M40.3,0.3H30.2c-0.1,0-0.2,0.1-0.2,0.2
	v0.1c0,0.1,0.1,0.2,0.2,0.2c1,0,1.5,0.4,1.5,1.3v12.7c0,0.5-0.1,0.9-0.3,1c-0.2,0.2-0.6,0.2-1.2,0.3c-0.1,0-0.2,0.1-0.2,0.2v0.3
	c0,0.1,0.1,0.2,0.2,0.2h10.1c0.1,0,0.2-0.1,0.2-0.2v-0.3c0-0.1-0.1-0.2-0.2-0.2c-0.6,0-0.9-0.1-1.1-0.3c-0.2-0.2-0.3-0.5-0.3-1V2.2
	c0-0.6,0.1-0.9,0.3-1.1c0.2-0.1,0.5-0.2,1.1-0.2c0.1,0,0.2-0.1,0.2-0.2V0.5C40.5,0.4,40.5,0.3,40.3,0.3L40.3,0.3L40.3,0.3z"/>
</svg>
