<?xml version="1.0" encoding="utf-8"?>
<!-- Generator: Adobe Illustrator 24.0.2, SVG Export Plug-In . SVG Version: 6.00 Build 0)  -->
<svg version="1.1" id="Layer_1" xmlns="http://www.w3.org/2000/svg" xmlns:xlink="http://www.w3.org/1999/xlink" x="0px" y="0px"
	 viewBox="0 0 127.6 20.5" style="enable-background:new 0 0 127.6 20.5;" xml:space="preserve">
<style type="text/css">
	.st0{fill:#F1F1F2;}
</style>
<g>
	<g>
		<g>
			<g>
				<path class="st0" d="M11.1,20.5C11.1,20.5,11.1,20.5,11.1,20.5c-0.9,0-1.7-0.8-1.7-1.7l0-0.8c0-0.8,0-1.6,0-2.4
					c0-0.8-0.3-1.3-1-1.5c-0.3-0.1-0.7,0-1.1,0.2c-0.6,0.3-1.2,0.7-1.8,1l-1,0.6c-0.8,0.5-1.8,0.2-2.3-0.6c-0.2-0.4-0.3-0.9-0.2-1.3
					c0.1-0.4,0.4-0.8,0.7-1c1.3-0.8,2.3-1.4,3.5-2c0.9-0.4,1.9-0.5,3-0.2c1.6,0.4,2.7,1.4,3.3,2.9c0.2,0.5,0.3,1,0.3,1.6
					c0,0.4,0,0.8,0,1.2l0,2.2C12.8,19.8,12,20.5,11.1,20.5z M8.1,13.8c0.1,0,0.3,0,0.4,0.1c0.9,0.2,1.3,0.9,1.3,1.8
					c0,0.8,0,1.6,0,2.4l0,0.8c0,0.7,0.6,1.3,1.3,1.3c0,0,0,0,0,0c0.7,0,1.3-0.6,1.3-1.3l0-2.2c0-0.4,0-0.8,0-1.2
					c0-0.5-0.1-1-0.3-1.5c-0.6-1.4-1.6-2.3-3-2.7c-1-0.3-1.9-0.2-2.7,0.2c-1.1,0.6-2.2,1.2-3.5,2c-0.3,0.2-0.5,0.4-0.5,0.8
					c-0.1,0.3,0,0.7,0.2,1c0.4,0.6,1.2,0.8,1.8,0.4l1-0.6c0.6-0.3,1.2-0.7,1.8-1C7.5,13.9,7.8,13.8,8.1,13.8z"/>
			</g>
			<g>
				<path class="st0" d="M18.6,16.2c-0.3,0-0.6-0.1-0.9-0.2L17,15.6c-0.8-0.4-1.5-0.9-2.2-1.3c-1.2-0.7-1.9-1.8-2.2-3.2
					c0,0,0-0.1,0-0.1l-0.1-0.8c0.1-1.8,0.9-3.2,2.3-4.1c0.9-0.5,1.8-1,2.6-1.5l0.3-0.2c0.8-0.5,1.8-0.2,2.3,0.6
					c0.5,0.8,0.2,1.8-0.6,2.3c-0.8,0.5-1.6,0.9-2.3,1.4l-0.5,0.3c-0.5,0.3-0.7,0.7-0.7,1.2c0,0.5,0.2,0.9,0.7,1.2l0.5,0.3
					c0.8,0.5,1.6,0.9,2.4,1.4c0.8,0.5,1.1,1.5,0.6,2.3C19.7,15.9,19.1,16.2,18.6,16.2z M12.9,11.1c0.3,1.3,1,2.3,2.1,2.9
					c0.7,0.4,1.5,0.9,2.2,1.3l0.7,0.4c0.6,0.4,1.4,0.2,1.8-0.5c0.4-0.6,0.2-1.4-0.5-1.8c-0.8-0.5-1.6-0.9-2.4-1.4l-0.5-0.3
					c-0.6-0.3-0.9-0.8-0.9-1.5c0-0.7,0.3-1.2,0.9-1.5l0.5-0.3c0.8-0.5,1.6-0.9,2.3-1.4C19.8,6.7,20,6,19.7,5.3
					c-0.4-0.6-1.1-0.8-1.8-0.5L17.6,5c-0.9,0.5-1.8,1-2.6,1.5c-1.4,0.8-2.1,2.1-2.2,3.8L12.9,11.1l-0.2,0L12.9,11.1z"/>
			</g>
			<g>
				<path class="st0" d="M20.4,12.1c-1,0-1.8-0.8-1.8-1.8s0.8-1.8,1.8-1.8s1.8,0.8,1.8,1.8S21.4,12.1,20.4,12.1z M20.4,8.8
					c-0.8,0-1.4,0.6-1.4,1.4c0,0.8,0.6,1.4,1.4,1.4c0.8,0,1.4-0.6,1.4-1.4C21.9,9.5,21.2,8.8,20.4,8.8z"/>
			</g>
			<g>
				<path class="st0" d="M15.8,4c-1,0-1.8-0.8-1.8-1.8s0.8-1.8,1.8-1.8s1.8,0.8,1.8,1.8S16.8,4,15.8,4z M15.8,0.8
					c-0.8,0-1.4,0.6-1.4,1.4s0.6,1.4,1.4,1.4s1.4-0.6,1.4-1.4S16.6,0.8,15.8,0.8z"/>
			</g>
			<g>
				<path class="st0" d="M6.5,4c-1,0-1.8-0.8-1.8-1.8s0.8-1.8,1.8-1.8s1.8,0.8,1.8,1.8S7.5,4,6.5,4z M6.5,0.8C5.7,0.8,5,1.4,5,2.2
					s0.6,1.4,1.4,1.4S7.9,3,7.9,2.2S7.3,0.8,6.5,0.8z"/>
			</g>
			<g>
				<path class="st0" d="M8,9.8c-0.6,0-1.2-0.1-1.7-0.4C5.1,8.8,4,8.1,2.8,7.4c-0.4-0.2-0.6-0.6-0.7-1C1.9,6,2,5.5,2.3,5.1
					c0.5-0.8,1.5-1,2.3-0.6l1,0.6c0.6,0.3,1.2,0.7,1.8,1c0.4,0.2,0.7,0.3,1.1,0.2c0.7-0.2,1.1-0.7,1-1.5c0-0.8,0-1.6,0-2.4l0-0.8
					c0-0.9,0.8-1.7,1.7-1.7c0,0,0,0,0,0c0.9,0,1.7,0.8,1.7,1.7l0,2.2c0,0.4,0,0.8,0,1.2c0,0.6-0.1,1.1-0.3,1.6
					c-0.6,1.5-1.7,2.5-3.3,2.9C8.8,9.7,8.4,9.8,8,9.8z M3.7,4.7c-0.4,0-0.9,0.2-1.1,0.6C2.4,5.6,2.3,6,2.4,6.3
					C2.5,6.6,2.7,6.9,3,7.1c1.3,0.8,2.3,1.4,3.5,2c0.8,0.4,1.7,0.5,2.7,0.2c1.4-0.4,2.5-1.3,3-2.7c0.2-0.5,0.3-0.9,0.3-1.5
					c0-0.4,0-0.8,0-1.2l0-2.2c0-0.7-0.6-1.3-1.3-1.3c0,0,0,0,0,0c-0.7,0-1.3,0.6-1.3,1.3l0,0.8c0,0.8,0,1.6,0,2.4
					c0,0.9-0.5,1.6-1.3,1.8C8.1,6.8,7.6,6.7,7.1,6.5C6.6,6.1,6,5.8,5.4,5.4l-1-0.6C4.2,4.7,3.9,4.7,3.7,4.7z"/>
			</g>
			<g>
				<path class="st0" d="M1.8,12.1c-1,0-1.8-0.8-1.8-1.8s0.8-1.8,1.8-1.8s1.8,0.8,1.8,1.8S2.8,12.1,1.8,12.1z M1.8,8.8
					c-0.8,0-1.4,0.6-1.4,1.4c0,0.8,0.6,1.4,1.4,1.4c0.8,0,1.4-0.6,1.4-1.4C3.2,9.5,2.6,8.8,1.8,8.8z"/>
			</g>
			<g>
				<path class="st0" d="M6.5,20.1c-1,0-1.8-0.8-1.8-1.8s0.8-1.8,1.8-1.8s1.8,0.8,1.8,1.8S7.5,20.1,6.5,20.1z M6.5,16.9
					c-0.8,0-1.4,0.6-1.4,1.4c0,0.8,0.6,1.4,1.4,1.4s1.4-0.6,1.4-1.4C7.9,17.5,7.3,16.9,6.5,16.9z"/>
			</g>
			<g>
				<path class="st0" d="M15.8,20.1c-1,0-1.8-0.8-1.8-1.8s0.8-1.8,1.8-1.8s1.8,0.8,1.8,1.8S16.8,20.1,15.8,20.1z M15.8,16.9
					c-0.8,0-1.4,0.6-1.4,1.4c0,0.8,0.6,1.4,1.4,1.4s1.4-0.6,1.4-1.4C17.2,17.5,16.6,16.9,15.8,16.9z"/>
			</g>
		</g>
		<g>
			<path class="st0" d="M26.3,12c-0.2-0.5-0.3-1-0.3-1.6s0.1-1.1,0.3-1.6C27,6.7,29.4,5.5,33,5.5c3.7,0,6.2,1.4,6.4,3.7h-3.4
				c-0.3-0.9-1.3-1.5-3-1.5c-1.6,0-2.9,0.6-3.4,1.8c-0.1,0.3-0.2,0.6-0.2,1s0.1,0.7,0.2,1c0.4,1.2,1.7,1.8,3.3,1.8
				c1.5,0,2.5-0.6,2.9-1.5h3.4c-0.3,2.2-2.6,3.7-6.3,3.7C29.4,15.3,27,14.1,26.3,12z"/>
			<path class="st0" d="M40.1,12c-0.2-0.5-0.3-1-0.3-1.6c0-0.6,0.1-1.2,0.3-1.6c0.8-2.1,3.2-3.3,6.8-3.3s6,1.1,6.8,3.3
				c0.2,0.5,0.3,1,0.3,1.6c0,0.6-0.1,1.2-0.3,1.6c-0.8,2.1-3.2,3.3-6.8,3.3S40.9,14.2,40.1,12z M43.4,11.4c0.4,1.1,1.7,1.8,3.5,1.8
				c1.8,0,3-0.7,3.5-1.8c0.1-0.3,0.2-0.6,0.2-1s-0.1-0.7-0.2-1c-0.4-1.1-1.7-1.8-3.5-1.8c-1.8,0-3.1,0.7-3.5,1.8
				c-0.1,0.3-0.2,0.6-0.2,1S43.3,11.1,43.4,11.4z"/>
			<path class="st0" d="M54.6,12.2c-0.2-0.5-0.3-1.1-0.3-1.7c0-0.6,0.1-1.2,0.3-1.7c0.7-2.1,3-3.3,6.7-3.3c3.8,0,6.2,1.4,6.5,3.6
				h-3.4c-0.3-0.9-1.4-1.4-3-1.4c-1.7,0-3,0.6-3.4,1.8c-0.1,0.3-0.2,0.7-0.2,1.1c0,0.4,0.1,0.8,0.2,1.1c0.4,1.2,1.7,1.7,3.2,1.7
				c1.7,0,2.8-0.7,3-1.6h-3.2V10h6.5v5h-3l0.5-2.1h-0.3c-0.6,1.4-1.9,2.4-4.5,2.4C57.3,15.3,55.3,14.1,54.6,12.2z"/>
			<path class="st0" d="M68.8,5.8h4.3l3.8,5.1l0.3,2.5h0.3V5.8h3.1V15h-4.3l-3.8-5.1l-0.3-2.4h-0.3V15h-3.1V5.8z"/>
			<path class="st0" d="M81.4,5.8h3.3V15h-3.3V5.8z"/>
			<path class="st0" d="M89.4,8h-3.9V5.8h11.2V8h-3.9v7h-3.3V8z"/>
			<path class="st0" d="M97.3,5.8h3.3V15h-3.3V5.8z"/>
			<path class="st0" d="M101.3,5.8h3.6l2.6,6.6l0.2,1.2h0.3l0.2-1.2l2.6-6.6h3.6l-3.9,9.2h-5.1L101.3,5.8z"/>
			<g>
				<g>
					<g>
						<path class="st0" d="M120.3,15c-0.6,0-1.1,0-1.7,0c-2,0-3.5-0.9-4.5-2.7c-0.4-0.8-0.6-1.6-0.5-2.7c0.1-0.9,0.4-1.7,0.9-2.4
							c0.8-1,1.8-1.7,2.9-1.9c0.9-0.2,1.7-0.2,2.5,0.1c1.6,0.5,2.8,1.6,3.4,3.2c0.2,0.5,0.3,1,0.3,1.5l0,0c0,1.1,0,2.1,0,3.2V15
							L120.3,15z M118.6,5.6c-0.3,0-0.7,0-1.1,0.1c-1,0.2-1.9,0.8-2.7,1.7c-0.5,0.6-0.8,1.4-0.8,2.2c-0.1,1,0,1.8,0.4,2.5
							c0.9,1.7,2.3,2.5,4.2,2.5c0.6,0,1.1,0,1.7,0l2.9,0v-1.4c0-1.1,0-2.1,0-3.1v0c0-0.5-0.1-1-0.2-1.4c-0.5-1.5-1.6-2.5-3.1-2.9
							C119.4,5.6,119,5.6,118.6,5.6z M121.2,12.8l-2,0c-0.2,0-0.4,0-0.7,0c0,0,0,0,0,0c-1.1,0-2.2-0.8-2.5-1.9
							c-0.4-1.3,0.3-2.7,1.5-3.2c1-0.5,2.2-0.2,3,0.6c0.5,0.5,0.7,1.2,0.7,1.9V12.8z M118.9,12.3c0.1,0,0.2,0,0.3,0l1.6,0v-2.2
							c0-0.6-0.2-1.2-0.6-1.7c-0.6-0.7-1.6-0.9-2.5-0.5c-1,0.5-1.6,1.6-1.2,2.7c0.3,0.9,1.2,1.6,2.1,1.6
							C118.6,12.4,118.7,12.3,118.9,12.3z"/>
					</g>
				</g>
			</g>
			<g>
				<g>
					<path class="st0" d="M124.2,5.2l0.3,0c0,0,0,0,0,0c0.4,0,0.8,0.1,1.1,0.2c0.8,0.3,1.3,0.9,1.5,1.7c0,0.2,0.1,0.4,0.1,0.6
						c0,0.4,0,0.9,0,1.3l0,6.1h-3V5.2z M126.8,8.9c0-0.4,0-0.9,0-1.3c0-0.2,0-0.4-0.1-0.5c-0.2-0.7-0.6-1.1-1.2-1.4
						c-0.3-0.1-0.6-0.2-0.9-0.2v9h2.2L126.8,8.9z"/>
				</g>
			</g>
		</g>
	</g>
	<path class="st0" d="M125.7,0.4c-1,0-1.8,0.8-1.8,1.8s0.8,1.8,1.8,1.8s1.8-0.8,1.8-1.8S126.7,0.4,125.7,0.4z M127.1,2.2
		c0,0.8-0.6,1.4-1.4,1.4s-1.4-0.6-1.4-1.4c0-0.8,0.6-1.4,1.4-1.4S127.1,1.4,127.1,2.2z"/>
</g>
</svg>
