<?xml version="1.0" encoding="utf-8"?>
<!-- Generator: Adobe Illustrator 24.0.2, SVG Export Plug-In . SVG Version: 6.00 Build 0)  -->
<svg version="1.1" id="Layer_1" xmlns="http://www.w3.org/2000/svg" xmlns:xlink="http://www.w3.org/1999/xlink" x="0px" y="0px"
	 viewBox="0 0 70 80" style="enable-background:new 0 0 70 80;" xml:space="preserve">
<style type="text/css">
	.st0{fill:#F1F1F2;}
</style>
<g>
	<g>
		<g>
			<g>
				<path class="st0" d="M0.2,77.7C0.1,77.4,0,77,0,76.6c0-0.4,0.1-0.8,0.2-1.1c0.5-1.5,2.2-2.3,4.6-2.3c2.6,0,4.3,1,4.4,2.5H6.9
					c-0.2-0.6-0.9-1.1-2-1.1c-1.1,0-2,0.4-2.3,1.2c-0.1,0.2-0.1,0.4-0.1,0.7c0,0.2,0,0.5,0.1,0.7c0.3,0.8,1.2,1.2,2.3,1.2
					c1.1,0,1.7-0.4,2-1.1h2.4C8.9,79,7.3,80,4.8,80C2.3,80,0.7,79.2,0.2,77.7z"/>
				<path class="st0" d="M9.7,77.7c-0.1-0.3-0.2-0.7-0.2-1.1c0-0.4,0.1-0.8,0.2-1.1c0.5-1.5,2.2-2.3,4.7-2.3s4.2,0.8,4.7,2.3
					c0.1,0.3,0.2,0.7,0.2,1.1c0,0.4-0.1,0.8-0.2,1.1c-0.5,1.5-2.2,2.3-4.7,2.3S10.2,79.2,9.7,77.7z M12,77.3
					c0.3,0.8,1.2,1.2,2.4,1.2c1.2,0,2.1-0.5,2.4-1.2c0.1-0.2,0.1-0.4,0.1-0.7c0-0.2,0-0.5-0.1-0.7c-0.3-0.8-1.2-1.2-2.4-1.2
					c-1.2,0-2.1,0.5-2.4,1.2c-0.1,0.2-0.1,0.4-0.1,0.7C11.9,76.9,11.9,77.1,12,77.3z"/>
				<path class="st0" d="M19.7,77.8c-0.1-0.4-0.2-0.7-0.2-1.2c0-0.4,0.1-0.8,0.2-1.2c0.5-1.4,2.1-2.3,4.6-2.3c2.6,0,4.3,0.9,4.5,2.5
					h-2.4c-0.2-0.6-1-1-2.1-1c-1.2,0-2,0.4-2.3,1.2c-0.1,0.2-0.1,0.5-0.1,0.7c0,0.3,0,0.5,0.1,0.8c0.3,0.8,1.1,1.2,2.2,1.2
					c1.2,0,1.9-0.5,2.1-1.1h-2.2v-1.3h4.4v3.5h-2.1l0.4-1.4h-0.2c-0.4,1-1.3,1.7-3.1,1.7C21.5,80,20.2,79.2,19.7,77.8z"/>
				<path class="st0" d="M29.4,73.5h3l2.6,3.5l0.2,1.7h0.2v-5.2h2.1v6.3h-3L32,76.3l-0.2-1.7h-0.2v5.2h-2.1V73.5z"/>
				<path class="st0" d="M38.1,73.5h2.3v6.3h-2.3V73.5z"/>
				<path class="st0" d="M43.6,74.9h-2.7v-1.5h7.7v1.5h-2.7v4.8h-2.3V74.9z"/>
				<path class="st0" d="M49.1,73.5h2.3v6.3h-2.3V73.5z"/>
				<path class="st0" d="M51.8,73.5h2.5L56,78l0.1,0.8h0.2l0.1-0.8l1.8-4.5h2.5L58,79.8h-3.5L51.8,73.5z"/>
				<g>
					<g>
						<g>
							<path class="st0" d="M64.9,79.8c-0.4,0-0.8,0-1.2,0c-1.4,0-2.4-0.6-3.1-1.9c-0.3-0.5-0.4-1.1-0.3-1.9
								c0.1-0.6,0.3-1.2,0.6-1.6c0.5-0.7,1.2-1.1,2-1.3c0.6-0.1,1.2-0.1,1.7,0c1.1,0.3,1.9,1.1,2.3,2.2c0.1,0.3,0.2,0.7,0.2,1l0,0
								c0,0.7,0,1.4,0,2.2v1.2L64.9,79.8z M63.7,73.3c-0.2,0-0.5,0-0.7,0.1c-0.7,0.2-1.3,0.6-1.8,1.2c-0.3,0.4-0.5,0.9-0.6,1.5
								c-0.1,0.7,0,1.2,0.3,1.7c0.6,1.2,1.6,1.7,2.9,1.7c0.4,0,0.8,0,1.2,0l2,0v-0.9c0-0.7,0-1.4,0-2.2v0c0-0.4-0.1-0.7-0.2-1
								c-0.4-1-1.1-1.7-2.1-2C64.3,73.3,64,73.3,63.7,73.3z M65.5,78.2l-1.4,0c-0.2,0-0.3,0-0.5,0c0,0,0,0,0,0
								c-0.8,0-1.5-0.6-1.7-1.3c-0.3-0.9,0.2-1.8,1-2.2c0.7-0.3,1.5-0.2,2,0.4c0.3,0.4,0.5,0.8,0.5,1.3V78.2z M63.9,78
								c0.1,0,0.2,0,0.2,0l1.1,0v-1.5c0-0.4-0.1-0.8-0.4-1.1c-0.4-0.5-1.1-0.6-1.7-0.3c-0.7,0.3-1.1,1.1-0.9,1.9
								c0.2,0.7,0.8,1.1,1.5,1.1C63.7,78,63.8,78,63.9,78z"/>
						</g>
					</g>
				</g>
				<g>
					<g>
						<path class="st0" d="M67.6,73l0.2,0c0,0,0,0,0,0c0.3,0,0.5,0,0.8,0.1c0.5,0.2,0.9,0.6,1,1.1c0,0.1,0,0.3,0,0.4
							c0,0.3,0,0.6,0,0.9l0,4.2h-2.1V73z M69.4,75.6c0-0.3,0-0.6,0-0.9c0-0.1,0-0.2,0-0.3c-0.1-0.5-0.4-0.8-0.8-0.9
							c-0.2-0.1-0.4-0.1-0.6-0.1v6.2h1.5L69.4,75.6z"/>
					</g>
				</g>
			</g>
			<path class="st0" d="M68.6,69.7c-0.7,0-1.3,0.6-1.3,1.3s0.6,1.3,1.3,1.3c0.7,0,1.3-0.6,1.3-1.3S69.3,69.7,68.6,69.7z M69.6,71
				c0,0.5-0.4,1-1,1c-0.5,0-1-0.4-1-1c0-0.5,0.4-1,1-1C69.2,70,69.6,70.4,69.6,71z"/>
		</g>
	</g>
	<g>
		<g>
			<path class="st0" d="M34.9,64.7C34.9,64.7,34.9,64.7,34.9,64.7c-2.9,0-5.3-2.4-5.3-5.3l0-2.4c0-2.5,0-5,0-7.5
				c0-2.4-1.1-4-3.3-4.7c-1.1-0.3-2.2-0.1-3.3,0.6c-1.9,1.1-3.8,2.2-5.6,3.3l-3.1,1.8c-2.5,1.4-5.7,0.6-7.2-1.8
				c-0.7-1.2-1-2.7-0.6-4.1c0.3-1.3,1.1-2.4,2.3-3.1c4-2.4,7.4-4.4,11-6.2c2.8-1.4,5.9-1.7,9.3-0.7c4.9,1.3,8.4,4.4,10.3,9
				c0.6,1.6,1,3.2,1,5c0,1.2,0,2.5,0,3.7l0,7.1C40.2,62.3,37.8,64.7,34.9,64.7z M25.3,43.5c0.4,0,0.9,0.1,1.3,0.2
				c2.7,0.8,4.2,2.8,4.1,5.8c0,2.5,0,5,0,7.5l0,2.4c0,2.2,1.9,4.1,4.1,4.1c0,0,0,0,0,0c2.3,0,4.1-1.9,4.2-4.1l0-7.1
				c0-1.2,0-2.5,0-3.7c0-1.6-0.3-3.1-0.9-4.6c-1.8-4.3-5-7.1-9.5-8.4c-3.1-0.8-6-0.6-8.5,0.7c-3.6,1.8-6.9,3.8-10.9,6.2
				c-0.9,0.5-1.5,1.4-1.7,2.4C7.2,45.9,7.4,47.1,8,48c1.2,1.9,3.7,2.5,5.6,1.4l3.1-1.8c1.9-1.1,3.8-2.2,5.6-3.3
				C23.4,43.8,24.4,43.5,25.3,43.5z"/>
		</g>
		<g>
			<path class="st0" d="M58.3,51.2c-0.9,0-1.8-0.2-2.7-0.7l-2.1-1.2c-2.4-1.4-4.7-2.7-7.1-4.1c-3.7-2.2-6.1-5.6-7-10
				c0-0.1,0-0.2,0-0.3l-0.2-2.4c0.2-5.7,2.7-10,7.4-12.8c2.7-1.6,5.5-3.2,8.3-4.8l0.8-0.5c2.5-1.4,5.7-0.6,7.2,1.9
				c1.5,2.6,0.7,5.7-1.9,7.2c-2.4,1.5-4.9,2.9-7.4,4.3l-1.6,1c-1.4,0.8-2.1,2.1-2.1,3.7c0,1.7,0.7,2.9,2.2,3.7l1.6,0.9
				c2.5,1.4,5,2.9,7.5,4.3c2.5,1.5,3.3,4.7,1.8,7.2C61.8,50.2,60.1,51.2,58.3,51.2z M40.5,34.9c0.9,4.1,3.1,7.2,6.5,9.3
				c2.3,1.4,4.7,2.7,7.1,4.1l2.1,1.2c2,1.1,4.5,0.5,5.6-1.4c1.2-2,0.5-4.4-1.4-5.6c-2.5-1.5-5-2.9-7.4-4.3l-1.6-0.9
				c-1.8-1.1-2.7-2.6-2.7-4.7c0-2.1,0.9-3.7,2.7-4.8l1.7-1c2.5-1.4,4.9-2.9,7.4-4.3c2-1.2,2.6-3.6,1.4-5.6c-1.1-1.9-3.6-2.6-5.6-1.5
				l-0.8,0.5c-2.8,1.6-5.5,3.2-8.3,4.8c-4.4,2.6-6.6,6.5-6.8,11.8l0.2,2.3l-0.6,0.3L40.5,34.9z"/>
		</g>
		<g>
			<path class="st0" d="M64.2,38.1c-3.1,0-5.7-2.6-5.7-5.7s2.5-5.7,5.7-5.7c3.1,0,5.7,2.5,5.7,5.7S67.3,38.1,64.2,38.1z M64.2,27.9
				c-2.5,0-4.5,2-4.5,4.5c0,2.5,2,4.5,4.5,4.5c2.5,0,4.5-2,4.5-4.5C68.7,29.9,66.7,27.9,64.2,27.9z"/>
		</g>
		<g>
			<path class="st0" d="M49.5,12.6c-3.1,0-5.7-2.6-5.7-5.7s2.6-5.7,5.7-5.7s5.7,2.6,5.7,5.7S52.6,12.6,49.5,12.6z M49.5,2.5
				C47,2.5,45,4.5,45,7s2,4.5,4.5,4.5c2.5,0,4.5-2,4.5-4.5S52,2.5,49.5,2.5z"/>
		</g>
		<g>
			<path class="st0" d="M20.2,12.6c-3.1,0-5.7-2.6-5.7-5.7s2.6-5.7,5.7-5.7s5.7,2.6,5.7,5.7S23.4,12.6,20.2,12.6z M20.2,2.5
				c-2.5,0-4.5,2-4.5,4.5s2,4.5,4.5,4.5s4.5-2,4.5-4.5S22.7,2.5,20.2,2.5z"/>
		</g>
		<g>
			<path class="st0" d="M25,30.8c-1.9,0-3.7-0.4-5.4-1.3c-3.6-1.8-7-3.8-11-6.2c-1.1-0.7-1.9-1.8-2.3-3.1C6,18.8,6.3,17.3,7,16.1
				c1.5-2.4,4.7-3.2,7.2-1.8l3.1,1.8c1.9,1.1,3.8,2.2,5.6,3.3c1.2,0.7,2.3,0.9,3.3,0.6c2.2-0.6,3.3-2.2,3.3-4.7c0-2.5,0-5,0-7.5
				l0-2.4c0-2.9,2.4-5.3,5.3-5.3c0,0,0,0,0,0c2.9,0,5.3,2.4,5.3,5.3l0,7.1c0,1.2,0,2.5,0,3.7c0,1.8-0.4,3.4-1,5
				c-1.9,4.7-5.4,7.7-10.3,9C27.6,30.6,26.3,30.8,25,30.8z M11.5,14.8c-1.4,0-2.8,0.7-3.5,1.9c-0.6,0.9-0.8,2.1-0.5,3.2
				c0.2,1,0.9,1.8,1.7,2.4c4,2.4,7.3,4.4,10.9,6.2c2.5,1.3,5.4,1.5,8.5,0.7c4.5-1.2,7.7-4,9.5-8.4c0.6-1.4,0.9-3,0.9-4.6
				c0-1.2,0-2.5,0-3.7l0-7.1c0-2.3-1.9-4.1-4.2-4.1c0,0,0,0,0,0c-2.2,0-4.1,1.9-4.1,4.1l0,2.4c0,2.5,0,5,0,7.5c0,3-1.4,5-4.1,5.8
				c-1.4,0.4-2.8,0.2-4.3-0.7c-1.9-1.1-3.8-2.2-5.6-3.3l-3.1-1.8C13,15,12.2,14.8,11.5,14.8z"/>
		</g>
		<g>
			<path class="st0" d="M5.6,38c-3.1,0-5.7-2.6-5.7-5.7c0-3.1,2.6-5.7,5.7-5.7s5.7,2.6,5.7,5.7C11.3,35.5,8.7,38,5.6,38z M5.6,27.8
				c-2.5,0-4.5,2-4.5,4.5c0,2.5,2,4.5,4.5,4.5c2.5,0,4.5-2,4.5-4.5C10.1,29.9,8.1,27.8,5.6,27.8z"/>
		</g>
		<g>
			<path class="st0" d="M20.3,63.4c-3.1,0-5.7-2.6-5.7-5.7c0-3.1,2.6-5.7,5.7-5.7s5.7,2.6,5.7,5.7C26,60.9,23.4,63.4,20.3,63.4z
				 M20.3,53.2c-2.5,0-4.5,2-4.5,4.5c0,2.5,2,4.5,4.5,4.5s4.5-2,4.5-4.5C24.8,55.2,22.8,53.2,20.3,53.2z"/>
		</g>
		<g>
			<path class="st0" d="M49.5,63.4c-3.1,0-5.7-2.5-5.7-5.7c0-3.1,2.6-5.7,5.7-5.7c3.1,0,5.7,2.6,5.7,5.7
				C55.2,60.9,52.7,63.4,49.5,63.4z M49.5,53.3c-2.5,0-4.5,2-4.5,4.5c0,2.5,2,4.5,4.5,4.5c2.5,0,4.5-2,4.5-4.5
				C54,55.3,52,53.3,49.5,53.3z"/>
		</g>
	</g>
</g>
</svg>
